<svg width="13" height="31" viewBox="0 0 13 31" fill="none" xmlns="http://www.w3.org/2000/svg">
<path d="M12.8575 4.54119C12.8575 4.39631 12.8226 4.24494 12.7483 4.10847L10.9452 0.502256C10.7208 0.0536668 10.1753 -0.128215 9.72667 0.0961099C9.27802 0.320435 9.0962 0.865959 9.32052 1.31461L10.7455 4.16459C9.05158 5.16694 7.59228 6.55091 6.50002 8.18652C5.40776 6.55091 3.94847 5.16688 2.25456 4.16459L3.67952 1.31461C3.90385 0.865959 3.72197 0.320435 3.27338 0.0961099C2.82479 -0.128215 2.2792 0.0536668 2.05488 0.502256L0.250654 4.11077C0.177393 4.24633 0.142639 4.39691 0.142639 4.54119V6.35759C0.142639 10.1367 1.95903 10.3819 1.95903 13.6232C1.95903 16.2049 0.142639 17.8322 0.142639 20.8888C0.142639 24.6101 1.95903 26.7481 1.95903 30.0918C1.95903 30.5934 2.36567 31 2.86723 31H10.1328C10.6344 31 11.041 30.5934 11.041 30.0918C11.041 26.7421 12.8574 24.6132 12.8574 20.8888C12.8574 17.8284 11.041 16.2083 11.041 13.6232C11.041 10.3876 12.8574 10.1337 12.8574 6.35759V4.54119H12.8575Z" fill="black"/>
</svg>
