<svg width="15" height="25" viewBox="0 0 15 25" fill="none" xmlns="http://www.w3.org/2000/svg">
<path d="M13.7489 0.00520167L10.507 0C6.86486 0 4.51113 2.41487 4.51113 6.15253V8.98926H1.25153C0.969867 8.98926 0.741776 9.21762 0.741776 9.49929V13.6094C0.741776 13.8911 0.970127 14.1191 1.25153 14.1191H4.51113V24.4902C4.51113 24.7719 4.73922 25 5.02088 25H9.27373C9.55539 25 9.78348 24.7716 9.78348 24.4902V14.1191H13.5947C13.8764 14.1191 14.1045 13.8911 14.1045 13.6094L14.106 9.49929C14.106 9.36404 14.0522 9.23452 13.9567 9.13881C13.8613 9.0431 13.7313 8.98926 13.596 8.98926H9.78348V6.58453C9.78348 5.42872 10.0589 4.84197 11.5645 4.84197L13.7484 4.84119C14.0298 4.84119 14.2579 4.61284 14.2579 4.33143V0.514965C14.2579 0.233815 14.0301 0.00572184 13.7489 0.00520167Z" fill="white"/>
</svg>
