<svg width="6" height="10" viewBox="0 0 6 10" fill="none" xmlns="http://www.w3.org/2000/svg">
<path d="M5.49959 0.00208067L4.20282 0C2.74596 0 1.80446 0.96595 1.80446 2.46101V3.59571H0.500626C0.387959 3.59571 0.296722 3.68705 0.296722 3.79971V5.44375C0.296722 5.55642 0.388063 5.64766 0.500626 5.64766H1.80446V9.79609C1.80446 9.90876 1.8957 10 2.00837 10H3.7095C3.82217 10 3.91341 9.90866 3.91341 9.79609V5.64766H5.4379C5.55056 5.64766 5.6418 5.55642 5.6418 5.44375L5.64242 3.79971C5.64242 3.74562 5.62089 3.69381 5.58271 3.65552C5.54453 3.61724 5.49251 3.59571 5.43842 3.59571H3.91341V2.63381C3.91341 2.17149 4.02358 1.93679 4.62582 1.93679L5.49938 1.93648C5.61194 1.93648 5.70318 1.84514 5.70318 1.73257V0.205986C5.70318 0.093526 5.61205 0.00228873 5.49959 0.00208067Z" fill="white"/>
</svg>
