<svg width="16" height="15" viewBox="0 0 16 15" fill="none" xmlns="http://www.w3.org/2000/svg">
<g clip-path="url(#clip0)">
<path d="M14.2394 5.625H12.8725V6.98563H11.5119V8.3525H12.8725V9.71313H14.2394V8.3525H15.6V6.98563H14.2394V5.625Z" fill="white"/>
<path d="M5.2875 12.1875C7.99251 12.1875 9.78938 10.2887 9.78938 7.60875C9.78938 7.30187 9.75751 7.065 9.71313 6.82875H5.28813V8.44H7.94876C7.84001 9.12437 7.14313 10.4606 5.28813 10.4606C3.69 10.4606 2.385 9.13688 2.385 7.5C2.385 5.86313 3.68938 4.53875 5.28813 4.53875C6.20251 4.53875 6.81001 4.92875 7.15563 5.26125L8.42813 4.04C7.60876 3.27313 6.55376 2.8125 5.2875 2.8125C2.6975 2.8125 0.599998 4.91 0.599998 7.5C0.599998 10.09 2.6975 12.1875 5.2875 12.1875Z" fill="white"/>
</g>
<defs>
<clipPath id="clip0">
<rect x="0.600006" width="15" height="15" rx="3" fill="white"/>
</clipPath>
</defs>
</svg>
