<svg width="25" height="25" viewBox="0 0 25 25" fill="none" xmlns="http://www.w3.org/2000/svg">
<g clip-path="url(#clip0)">
<path d="M12.5042 6.0813C8.95938 6.0813 6.08959 8.95422 6.08959 12.4959C6.08959 16.0407 8.96251 18.9105 12.5042 18.9105C16.049 18.9105 18.9188 16.0375 18.9188 12.4959C18.9188 8.95109 16.0458 6.0813 12.5042 6.0813ZM12.5042 16.6594C10.2031 16.6594 8.34063 14.7959 8.34063 12.4959C8.34063 10.1959 10.2042 8.33234 12.5042 8.33234C14.8042 8.33234 16.6677 10.1959 16.6677 12.4959C16.6688 14.7959 14.8052 16.6594 12.5042 16.6594Z" fill="white"/>
<path d="M17.6542 0.0791381C15.3542 -0.0281535 9.65732 -0.0229452 7.35523 0.0791381C5.33232 0.17393 3.54794 0.662471 2.1094 2.10101C-0.294767 4.50518 0.012525 7.74476 0.012525 12.4958C0.012525 17.3583 -0.258308 20.5229 2.1094 22.8906C4.52294 25.3031 7.8094 24.9875 12.5042 24.9875C17.3209 24.9875 18.9834 24.9906 20.6865 24.3312C23.0021 23.4323 24.75 21.3625 24.9209 17.6448C25.0292 15.3437 25.0229 9.64789 24.9209 7.34581C24.7146 2.95726 22.3594 0.295805 17.6542 0.0791381ZM21.2948 21.3C19.7188 22.876 17.5323 22.7354 12.474 22.7354C7.26565 22.7354 5.17711 22.8125 3.65315 21.2843C1.89794 19.5375 2.21565 16.7323 2.21565 12.4791C2.21565 6.72393 1.62503 2.57914 7.40107 2.2833C8.72815 2.23643 9.11877 2.2208 12.4594 2.2208L12.5063 2.25205C18.0573 2.25205 22.4125 1.6708 22.674 7.44581C22.7334 8.76351 22.7469 9.15935 22.7469 12.4948C22.7459 17.6427 22.8438 19.7437 21.2948 21.3Z" fill="white"/>
<path d="M19.1729 7.32702C20.0008 7.32702 20.6719 6.65591 20.6719 5.82806C20.6719 5.00021 20.0008 4.3291 19.1729 4.3291C18.3451 4.3291 17.674 5.00021 17.674 5.82806C17.674 6.65591 18.3451 7.32702 19.1729 7.32702Z" fill="white"/>
</g>
<defs>
<clipPath id="clip0">
<rect width="25" height="25" fill="white"/>
</clipPath>
</defs>
</svg>
