<svg width="12" height="12" viewBox="0 0 12 12" fill="none" xmlns="http://www.w3.org/2000/svg">
<g clip-path="url(#clip0)">
<path d="M6.00198 2.91901C4.30047 2.91901 2.92297 4.29801 2.92297 5.99801C2.92297 7.69951 4.30197 9.07701 6.00198 9.07701C7.70348 9.07701 9.08098 7.69801 9.08098 5.99801C9.08098 4.29651 7.70198 2.91901 6.00198 2.91901ZM6.00198 7.99651C4.89748 7.99651 4.00347 7.10201 4.00347 5.99801C4.00347 4.89401 4.89798 3.99951 6.00198 3.99951C7.10598 3.99951 8.00048 4.89401 8.00048 5.99801C8.00098 7.10201 7.10648 7.99651 6.00198 7.99651Z" fill="white"/>
<path d="M8.4739 0.0381816C7.3699 -0.0133184 4.6354 -0.0108184 3.5304 0.0381816C2.5594 0.0836815 1.7029 0.318181 1.0124 1.00868C-0.1416 2.16268 0.00590001 3.71768 0.00590001 5.99817C0.00590001 8.33217 -0.1241 9.85117 1.0124 10.9877C2.1709 12.1457 3.7484 11.9942 6.0019 11.9942C8.3139 11.9942 9.1119 11.9957 9.9294 11.6792C11.0409 11.2477 11.8799 10.2542 11.9619 8.46967C12.0139 7.36517 12.0109 4.63117 11.9619 3.52618C11.8629 1.41968 10.7324 0.142181 8.4739 0.0381816ZM10.2214 10.2242C9.4649 10.9807 8.4154 10.9132 5.9874 10.9132C3.4874 10.9132 2.4849 10.9502 1.7534 10.2167C0.9109 9.37817 1.0634 8.03167 1.0634 5.99017C1.0634 3.22768 0.7799 1.23818 3.5524 1.09618C4.1894 1.07368 4.3769 1.06618 5.9804 1.06618L6.0029 1.08118C8.6674 1.08118 10.7579 0.80218 10.8834 3.57418C10.9119 4.20667 10.9184 4.39667 10.9184 5.99767C10.9179 8.46867 10.9649 9.47717 10.2214 10.2242Z" fill="white"/>
<path d="M9.20296 3.517C9.60033 3.517 9.92246 3.19487 9.92246 2.7975C9.92246 2.40013 9.60033 2.078 9.20296 2.078C8.80559 2.078 8.48346 2.40013 8.48346 2.7975C8.48346 3.19487 8.80559 3.517 9.20296 3.517Z" fill="white"/>
</g>
<defs>
<clipPath id="clip0">
<rect x="-3.05176e-05" width="12" height="12" rx="3" fill="white"/>
</clipPath>
</defs>
</svg>
