<svg width="26" height="25" viewBox="0 0 26 25" fill="none" xmlns="http://www.w3.org/2000/svg">
<g clip-path="url(#clip0)">
<path d="M25.4938 25.0001V24.999H25.5V15.8303C25.5 11.3449 24.5344 7.88965 19.2906 7.88965C16.7698 7.88965 15.0781 9.27298 14.3875 10.5844H14.3146V8.3084H9.3427V24.999H14.5198V16.7344C14.5198 14.5584 14.9323 12.4542 17.6271 12.4542C20.2823 12.4542 20.3219 14.9376 20.3219 16.874V25.0001H25.4938Z" fill="white"/>
<path d="M0.912491 8.30933H6.09582V25H0.912491V8.30933Z" fill="white"/>
<path d="M3.50208 0C1.84479 0 0.5 1.34479 0.5 3.00208C0.5 4.65938 1.84479 6.03229 3.50208 6.03229C5.15937 6.03229 6.50417 4.65938 6.50417 3.00208C6.50312 1.34479 5.15833 0 3.50208 0V0Z" fill="white"/>
</g>
<defs>
<clipPath id="clip0">
<rect width="25" height="25" fill="white" transform="translate(0.5)"/>
</clipPath>
</defs>
</svg>
