<svg width="712" height="230" viewBox="0 0 712 230" fill="none" xmlns="http://www.w3.org/2000/svg">
<rect width="712" height="230" rx="3" fill="white"/>
<path d="M9 51V10H30M9 51H701.5M9 51V92M701.5 51V10H641.75M701.5 51V92M701.5 92H9M701.5 92V135.5M9 92V135.5M9 135.5H701.5M9 135.5V177.75M701.5 135.5V177.75M701.5 177.75V220H641.75M701.5 177.75H9M9 177.75V220H30M30 220V10M30 220H189.5M30 10H189.5M189.5 10V220M189.5 10H252M189.5 220H252M252 220V10M252 220H305M252 10H305M305 10V220M305 10H360.5M305 220H360.5M360.5 220V10M360.5 220H413M360.5 10H413M413 10V220M413 10H468M413 220H468M468 220V10M468 220H522M468 10H522M522 10V220M522 10H582M522 220H582M582 220V10M582 220H641.75M582 10H641.75M641.75 10V220" stroke="black" stroke-opacity="0.2"/>
<path d="M53.712 31.4H54.848V35.672C54.3253 36.1307 53.7067 36.4827 52.992 36.728C52.2773 36.9733 51.5253 37.096 50.736 37.096C49.616 37.096 48.608 36.8507 47.712 36.36C46.816 35.8693 46.112 35.192 45.6 34.328C45.088 33.4533 44.832 32.4773 44.832 31.4C44.832 30.3227 45.088 29.352 45.6 28.488C46.112 27.6133 46.816 26.9307 47.712 26.44C48.608 25.9493 49.6213 25.704 50.752 25.704C51.6053 25.704 52.3893 25.8427 53.104 26.12C53.8187 26.3867 54.4213 26.7867 54.912 27.32L54.176 28.072C53.2907 27.1973 52.1653 26.76 50.8 26.76C49.8933 26.76 49.072 26.9627 48.336 27.368C47.6107 27.7627 47.04 28.3173 46.624 29.032C46.208 29.736 46 30.5253 46 31.4C46 32.2747 46.208 33.064 46.624 33.768C47.04 34.472 47.6107 35.0267 48.336 35.432C49.0613 35.8373 49.8773 36.04 50.784 36.04C51.936 36.04 52.912 35.752 53.712 35.176V31.4ZM57.959 28.584H59.095V37H57.959V28.584ZM58.535 26.744C58.3003 26.744 58.103 26.664 57.943 26.504C57.783 26.344 57.703 26.152 57.703 25.928C57.703 25.7147 57.783 25.528 57.943 25.368C58.103 25.208 58.3003 25.128 58.535 25.128C58.7697 25.128 58.967 25.208 59.127 25.368C59.287 25.5173 59.367 25.6987 59.367 25.912C59.367 26.1467 59.287 26.344 59.127 26.504C58.967 26.664 58.7697 26.744 58.535 26.744ZM66.5439 28.52C67.5999 28.52 68.4372 28.8293 69.0559 29.448C69.6852 30.056 69.9999 30.9467 69.9999 32.12V37H68.8639V32.232C68.8639 31.3573 68.6452 30.6907 68.2079 30.232C67.7705 29.7733 67.1465 29.544 66.3359 29.544C65.4292 29.544 64.7092 29.816 64.1759 30.36C63.6532 30.8933 63.3919 31.6347 63.3919 32.584V37H62.2559V28.584H63.3439V30.136C63.6532 29.624 64.0799 29.2293 64.6239 28.952C65.1785 28.664 65.8185 28.52 66.5439 28.52ZM76.5553 37.08C75.7446 37.08 75.0139 36.8987 74.3633 36.536C73.7126 36.1627 73.2006 35.6507 72.8273 35C72.4539 34.3493 72.2673 33.6133 72.2673 32.792C72.2673 31.9707 72.4539 31.2347 72.8273 30.584C73.2006 29.9333 73.7126 29.4267 74.3633 29.064C75.0139 28.7013 75.7446 28.52 76.5553 28.52C77.3659 28.52 78.0966 28.7013 78.7473 29.064C79.3979 29.4267 79.9046 29.9333 80.2673 30.584C80.6406 31.2347 80.8273 31.9707 80.8273 32.792C80.8273 33.6133 80.6406 34.3493 80.2673 35C79.9046 35.6507 79.3979 36.1627 78.7473 36.536C78.0966 36.8987 77.3659 37.08 76.5553 37.08ZM76.5553 36.072C77.1526 36.072 77.6859 35.9387 78.1553 35.672C78.6353 35.3947 79.0086 35.0053 79.2753 34.504C79.5419 34.0027 79.6753 33.432 79.6753 32.792C79.6753 32.152 79.5419 31.5813 79.2753 31.08C79.0086 30.5787 78.6353 30.1947 78.1553 29.928C77.6859 29.6507 77.1526 29.512 76.5553 29.512C75.9579 29.512 75.4193 29.6507 74.9393 29.928C74.4699 30.1947 74.0966 30.5787 73.8193 31.08C73.5526 31.5813 73.4193 32.152 73.4193 32.792C73.4193 33.432 73.5526 34.0027 73.8193 34.504C74.0966 35.0053 74.4699 35.3947 74.9393 35.672C75.4193 35.9387 75.9579 36.072 76.5553 36.072ZM89.59 37.08C88.9073 37.08 88.2513 36.984 87.622 36.792C87.0033 36.5893 86.518 36.3387 86.166 36.04L86.678 35.144C87.03 35.4213 87.4727 35.6507 88.006 35.832C88.5393 36.0027 89.094 36.088 89.67 36.088C90.438 36.088 91.0033 35.9707 91.366 35.736C91.7393 35.4907 91.926 35.1493 91.926 34.712C91.926 34.4027 91.8247 34.1627 91.622 33.992C91.4193 33.8107 91.1633 33.6773 90.854 33.592C90.5447 33.496 90.134 33.4053 89.622 33.32C88.9393 33.192 88.39 33.064 87.974 32.936C87.558 32.7973 87.2007 32.568 86.902 32.248C86.614 31.928 86.47 31.4853 86.47 30.92C86.47 30.216 86.7633 29.64 87.35 29.192C87.9367 28.744 88.7527 28.52 89.798 28.52C90.342 28.52 90.886 28.5947 91.43 28.744C91.974 28.8827 92.422 29.0693 92.774 29.304L92.278 30.216C91.5847 29.736 90.758 29.496 89.798 29.496C89.0727 29.496 88.5233 29.624 88.15 29.88C87.7873 30.136 87.606 30.472 87.606 30.888C87.606 31.208 87.7073 31.464 87.91 31.656C88.1233 31.848 88.3847 31.992 88.694 32.088C89.0033 32.1733 89.43 32.264 89.974 32.36C90.646 32.488 91.1847 32.616 91.59 32.744C91.9953 32.872 92.342 33.0907 92.63 33.4C92.918 33.7093 93.062 34.136 93.062 34.68C93.062 35.416 92.7527 36.0027 92.134 36.44C91.526 36.8667 90.678 37.08 89.59 37.08ZM95.1621 28.584H96.2981V37H95.1621V28.584ZM95.7381 26.744C95.5035 26.744 95.3061 26.664 95.1461 26.504C94.9861 26.344 94.9061 26.152 94.9061 25.928C94.9061 25.7147 94.9861 25.528 95.1461 25.368C95.3061 25.208 95.5035 25.128 95.7381 25.128C95.9728 25.128 96.1701 25.208 96.3301 25.368C96.4901 25.5173 96.5701 25.6987 96.5701 25.912C96.5701 26.1467 96.4901 26.344 96.3301 26.504C96.1701 26.664 95.9728 26.744 95.7381 26.744ZM105.395 36.056V37H98.547V36.248L103.843 29.544H98.643V28.584H105.299V29.336L100.003 36.056H105.395ZM114.818 33.144H107.778C107.842 34.0187 108.178 34.728 108.786 35.272C109.394 35.8053 110.162 36.072 111.09 36.072C111.613 36.072 112.093 35.9813 112.53 35.8C112.968 35.608 113.346 35.3307 113.666 34.968L114.306 35.704C113.933 36.152 113.464 36.4933 112.898 36.728C112.344 36.9627 111.73 37.08 111.058 37.08C110.194 37.08 109.426 36.8987 108.754 36.536C108.093 36.1627 107.576 35.6507 107.202 35C106.829 34.3493 106.642 33.6133 106.642 32.792C106.642 31.9707 106.818 31.2347 107.17 30.584C107.533 29.9333 108.024 29.4267 108.642 29.064C109.272 28.7013 109.976 28.52 110.754 28.52C111.533 28.52 112.232 28.7013 112.85 29.064C113.469 29.4267 113.954 29.9333 114.306 30.584C114.658 31.224 114.834 31.96 114.834 32.792L114.818 33.144ZM110.754 29.496C109.944 29.496 109.261 29.7573 108.706 30.28C108.162 30.792 107.853 31.464 107.778 32.296H113.746C113.672 31.464 113.357 30.792 112.802 30.28C112.258 29.7573 111.576 29.496 110.754 29.496Z" fill="black" fill-opacity="0.9"/>
<path d="M50.336 78.096C48.8853 78.096 47.7547 77.68 46.944 76.848C46.1333 76.016 45.728 74.8053 45.728 73.216V66.8H46.912V73.168C46.912 74.4693 47.2053 75.44 47.792 76.08C48.3787 76.72 49.2267 77.04 50.336 77.04C51.456 77.04 52.3093 76.72 52.896 76.08C53.4827 75.44 53.776 74.4693 53.776 73.168V66.8H54.928V73.216C54.928 74.8053 54.5227 76.016 53.712 76.848C52.912 77.68 51.7867 78.096 50.336 78.096ZM61.9679 72.736L59.6799 75.056V78H58.4959V66.8H59.6799V73.568L66.2559 66.8H67.6159L62.7679 71.872L67.9519 78H66.5439L61.9679 72.736ZM76.0744 78.08C75.3917 78.08 74.7357 77.984 74.1064 77.792C73.4877 77.5893 73.0024 77.3387 72.6504 77.04L73.1624 76.144C73.5144 76.4213 73.957 76.6507 74.4904 76.832C75.0237 77.0027 75.5784 77.088 76.1544 77.088C76.9224 77.088 77.4877 76.9707 77.8504 76.736C78.2237 76.4907 78.4104 76.1493 78.4104 75.712C78.4104 75.4027 78.309 75.1627 78.1064 74.992C77.9037 74.8107 77.6477 74.6773 77.3384 74.592C77.029 74.496 76.6184 74.4053 76.1064 74.32C75.4237 74.192 74.8744 74.064 74.4584 73.936C74.0424 73.7973 73.685 73.568 73.3864 73.248C73.0984 72.928 72.9544 72.4853 72.9544 71.92C72.9544 71.216 73.2477 70.64 73.8344 70.192C74.421 69.744 75.237 69.52 76.2824 69.52C76.8264 69.52 77.3704 69.5947 77.9144 69.744C78.4584 69.8827 78.9064 70.0693 79.2584 70.304L78.7624 71.216C78.069 70.736 77.2424 70.496 76.2824 70.496C75.557 70.496 75.0077 70.624 74.6344 70.88C74.2717 71.136 74.0904 71.472 74.0904 71.888C74.0904 72.208 74.1917 72.464 74.3944 72.656C74.6077 72.848 74.869 72.992 75.1784 73.088C75.4877 73.1733 75.9144 73.264 76.4584 73.36C77.1304 73.488 77.669 73.616 78.0744 73.744C78.4797 73.872 78.8264 74.0907 79.1144 74.4C79.4024 74.7093 79.5464 75.136 79.5464 75.68C79.5464 76.416 79.237 77.0027 78.6184 77.44C78.0104 77.8667 77.1624 78.08 76.0744 78.08ZM81.6465 69.584H82.7825V78H81.6465V69.584ZM82.2225 67.744C81.9878 67.744 81.7905 67.664 81.6305 67.504C81.4705 67.344 81.3905 67.152 81.3905 66.928C81.3905 66.7147 81.4705 66.528 81.6305 66.368C81.7905 66.208 81.9878 66.128 82.2225 66.128C82.4572 66.128 82.6545 66.208 82.8145 66.368C82.9745 66.5173 83.0545 66.6987 83.0545 66.912C83.0545 67.1467 82.9745 67.344 82.8145 67.504C82.6545 67.664 82.4572 67.744 82.2225 67.744ZM91.8794 77.056V78H85.0314V77.248L90.3274 70.544H85.1274V69.584H91.7834V70.336L86.4874 77.056H91.8794ZM101.303 74.144H94.2626C94.3266 75.0187 94.6626 75.728 95.2706 76.272C95.8786 76.8053 96.6466 77.072 97.5746 77.072C98.0973 77.072 98.5773 76.9813 99.0146 76.8C99.452 76.608 99.8306 76.3307 100.151 75.968L100.791 76.704C100.417 77.152 99.948 77.4933 99.3826 77.728C98.828 77.9627 98.2146 78.08 97.5426 78.08C96.6786 78.08 95.9106 77.8987 95.2386 77.536C94.5773 77.1627 94.06 76.6507 93.6866 76C93.3133 75.3493 93.1266 74.6133 93.1266 73.792C93.1266 72.9707 93.3026 72.2347 93.6546 71.584C94.0173 70.9333 94.508 70.4267 95.1266 70.064C95.756 69.7013 96.46 69.52 97.2386 69.52C98.0173 69.52 98.716 69.7013 99.3346 70.064C99.9533 70.4267 100.439 70.9333 100.791 71.584C101.143 72.224 101.319 72.96 101.319 73.792L101.303 74.144ZM97.2386 70.496C96.428 70.496 95.7453 70.7573 95.1906 71.28C94.6466 71.792 94.3373 72.464 94.2626 73.296H100.231C100.156 72.464 99.8413 71.792 99.2866 71.28C98.7426 70.7573 98.06 70.496 97.2386 70.496Z" fill="black" fill-opacity="0.9"/>
<path d="M53.744 119.976V121H45.824V109.8H53.504V110.824H47.008V114.808H52.8V115.816H47.008V119.976H53.744ZM66.7831 112.52C67.8391 112.52 68.6658 112.824 69.2631 113.432C69.8711 114.04 70.1751 114.936 70.1751 116.12V121H69.0391V116.232C69.0391 115.357 68.8258 114.691 68.3991 114.232C67.9831 113.773 67.3911 113.544 66.6231 113.544C65.7485 113.544 65.0605 113.816 64.5591 114.36C64.0578 114.893 63.8071 115.635 63.8071 116.584V121H62.6711V116.232C62.6711 115.357 62.4578 114.691 62.0311 114.232C61.6151 113.773 61.0178 113.544 60.2391 113.544C59.3751 113.544 58.6871 113.816 58.1751 114.36C57.6738 114.893 57.4231 115.635 57.4231 116.584V121H56.2871V112.584H57.3751V114.12C57.6738 113.608 58.0898 113.213 58.6231 112.936C59.1565 112.659 59.7698 112.52 60.4631 112.52C61.1671 112.52 61.7751 112.669 62.2871 112.968C62.8098 113.267 63.1991 113.709 63.4551 114.296C63.7645 113.741 64.2071 113.309 64.7831 113C65.3698 112.68 66.0365 112.52 66.7831 112.52ZM80.6151 117.144H73.5751C73.6391 118.019 73.9751 118.728 74.5831 119.272C75.1911 119.805 75.9591 120.072 76.8871 120.072C77.4098 120.072 77.8898 119.981 78.3271 119.8C78.7645 119.608 79.1431 119.331 79.4631 118.968L80.1031 119.704C79.7298 120.152 79.2605 120.493 78.6951 120.728C78.1405 120.963 77.5271 121.08 76.8551 121.08C75.9911 121.08 75.2231 120.899 74.5511 120.536C73.8898 120.163 73.3725 119.651 72.9991 119C72.6258 118.349 72.4391 117.613 72.4391 116.792C72.4391 115.971 72.6151 115.235 72.9671 114.584C73.3298 113.933 73.8205 113.427 74.4391 113.064C75.0685 112.701 75.7725 112.52 76.5511 112.52C77.3298 112.52 78.0285 112.701 78.6471 113.064C79.2658 113.427 79.7511 113.933 80.1031 114.584C80.4551 115.224 80.6311 115.96 80.6311 116.792L80.6151 117.144ZM76.5511 113.496C75.7405 113.496 75.0578 113.757 74.5031 114.28C73.9591 114.792 73.6498 115.464 73.5751 116.296H79.5431C79.4685 115.464 79.1538 114.792 78.5991 114.28C78.0551 113.757 77.3725 113.496 76.5511 113.496ZM84.0314 114.232C84.298 113.667 84.6927 113.24 85.2154 112.952C85.7487 112.664 86.4047 112.52 87.1834 112.52V113.624L86.9114 113.608C86.026 113.608 85.3327 113.88 84.8314 114.424C84.33 114.968 84.0794 115.731 84.0794 116.712V121H82.9434V112.584H84.0314V114.232ZM89.2403 109.128H90.3763V121H89.2403V109.128ZM96.4811 112.52C97.5798 112.52 98.4225 112.797 99.0091 113.352C99.5958 113.896 99.8891 114.707 99.8891 115.784V121H98.8011V119.688C98.5451 120.125 98.1665 120.467 97.6651 120.712C97.1745 120.957 96.5878 121.08 95.9051 121.08C94.9665 121.08 94.2198 120.856 93.6651 120.408C93.1105 119.96 92.8331 119.368 92.8331 118.632C92.8331 117.917 93.0891 117.341 93.6011 116.904C94.1238 116.467 94.9505 116.248 96.0811 116.248H98.7531V115.736C98.7531 115.011 98.5505 114.461 98.1451 114.088C97.7398 113.704 97.1478 113.512 96.3691 113.512C95.8358 113.512 95.3238 113.603 94.8331 113.784C94.3425 113.955 93.9211 114.195 93.5691 114.504L93.0571 113.656C93.4838 113.293 93.9958 113.016 94.5931 112.824C95.1905 112.621 95.8198 112.52 96.4811 112.52ZM96.0811 120.184C96.7211 120.184 97.2705 120.04 97.7291 119.752C98.1878 119.453 98.5291 119.027 98.7531 118.472V117.096H96.1131C94.6731 117.096 93.9531 117.597 93.9531 118.6C93.9531 119.091 94.1398 119.48 94.5131 119.768C94.8865 120.045 95.4091 120.184 96.0811 120.184ZM107.263 112.52C108.319 112.52 109.156 112.829 109.775 113.448C110.404 114.056 110.719 114.947 110.719 116.12V121H109.583V116.232C109.583 115.357 109.364 114.691 108.927 114.232C108.489 113.773 107.865 113.544 107.055 113.544C106.148 113.544 105.428 113.816 104.895 114.36C104.372 114.893 104.111 115.635 104.111 116.584V121H102.975V112.584H104.063V114.136C104.372 113.624 104.799 113.229 105.343 112.952C105.897 112.664 106.537 112.52 107.263 112.52ZM121.514 109.128V121H120.426V119.336C120.085 119.901 119.631 120.333 119.066 120.632C118.511 120.931 117.882 121.08 117.178 121.08C116.389 121.08 115.674 120.899 115.034 120.536C114.394 120.173 113.893 119.667 113.53 119.016C113.167 118.365 112.986 117.624 112.986 116.792C112.986 115.96 113.167 115.219 113.53 114.568C113.893 113.917 114.394 113.416 115.034 113.064C115.674 112.701 116.389 112.52 117.178 112.52C117.861 112.52 118.474 112.664 119.018 112.952C119.573 113.229 120.026 113.64 120.378 114.184V109.128H121.514ZM117.274 120.072C117.861 120.072 118.389 119.939 118.858 119.672C119.338 119.395 119.711 119.005 119.978 118.504C120.255 118.003 120.394 117.432 120.394 116.792C120.394 116.152 120.255 115.581 119.978 115.08C119.711 114.579 119.338 114.195 118.858 113.928C118.389 113.651 117.861 113.512 117.274 113.512C116.677 113.512 116.138 113.651 115.658 113.928C115.189 114.195 114.815 114.579 114.538 115.08C114.271 115.581 114.138 116.152 114.138 116.792C114.138 117.432 114.271 118.003 114.538 118.504C114.815 119.005 115.189 119.395 115.658 119.672C116.138 119.939 116.677 120.072 117.274 120.072ZM136.993 115.4H138.129V119.672C137.607 120.131 136.988 120.483 136.273 120.728C135.559 120.973 134.807 121.096 134.017 121.096C132.897 121.096 131.889 120.851 130.993 120.36C130.097 119.869 129.393 119.192 128.881 118.328C128.369 117.453 128.113 116.477 128.113 115.4C128.113 114.323 128.369 113.352 128.881 112.488C129.393 111.613 130.097 110.931 130.993 110.44C131.889 109.949 132.903 109.704 134.033 109.704C134.887 109.704 135.671 109.843 136.385 110.12C137.1 110.387 137.703 110.787 138.193 111.32L137.457 112.072C136.572 111.197 135.447 110.76 134.081 110.76C133.175 110.76 132.353 110.963 131.617 111.368C130.892 111.763 130.321 112.317 129.905 113.032C129.489 113.736 129.281 114.525 129.281 115.4C129.281 116.275 129.489 117.064 129.905 117.768C130.321 118.472 130.892 119.027 131.617 119.432C132.343 119.837 133.159 120.04 134.065 120.04C135.217 120.04 136.193 119.752 136.993 119.176V115.4ZM142.328 114.232C142.595 113.667 142.99 113.24 143.512 112.952C144.046 112.664 144.702 112.52 145.48 112.52V113.624L145.208 113.608C144.323 113.608 143.63 113.88 143.128 114.424C142.627 114.968 142.376 115.731 142.376 116.712V121H141.24V112.584H142.328V114.232ZM154.787 117.144H147.747C147.811 118.019 148.147 118.728 148.755 119.272C149.363 119.805 150.131 120.072 151.059 120.072C151.582 120.072 152.062 119.981 152.499 119.8C152.936 119.608 153.315 119.331 153.635 118.968L154.275 119.704C153.902 120.152 153.432 120.493 152.867 120.728C152.312 120.963 151.699 121.08 151.027 121.08C150.163 121.08 149.395 120.899 148.723 120.536C148.062 120.163 147.544 119.651 147.171 119C146.798 118.349 146.611 117.613 146.611 116.792C146.611 115.971 146.787 115.235 147.139 114.584C147.502 113.933 147.992 113.427 148.611 113.064C149.24 112.701 149.944 112.52 150.723 112.52C151.502 112.52 152.2 112.701 152.819 113.064C153.438 113.427 153.923 113.933 154.275 114.584C154.627 115.224 154.803 115.96 154.803 116.792L154.787 117.144ZM150.723 113.496C149.912 113.496 149.23 113.757 148.675 114.28C148.131 114.792 147.822 115.464 147.747 116.296H153.715C153.64 115.464 153.326 114.792 152.771 114.28C152.227 113.757 151.544 113.496 150.723 113.496ZM164.443 117.144H157.403C157.467 118.019 157.803 118.728 158.411 119.272C159.019 119.805 159.787 120.072 160.715 120.072C161.238 120.072 161.718 119.981 162.155 119.8C162.593 119.608 162.971 119.331 163.291 118.968L163.931 119.704C163.558 120.152 163.089 120.493 162.523 120.728C161.969 120.963 161.355 121.08 160.683 121.08C159.819 121.08 159.051 120.899 158.379 120.536C157.718 120.163 157.201 119.651 156.827 119C156.454 118.349 156.267 117.613 156.267 116.792C156.267 115.971 156.443 115.235 156.795 114.584C157.158 113.933 157.649 113.427 158.267 113.064C158.897 112.701 159.601 112.52 160.379 112.52C161.158 112.52 161.857 112.701 162.475 113.064C163.094 113.427 163.579 113.933 163.931 114.584C164.283 115.224 164.459 115.96 164.459 116.792L164.443 117.144ZM160.379 113.496C159.569 113.496 158.886 113.757 158.331 114.28C157.787 114.792 157.478 115.464 157.403 116.296H163.371C163.297 115.464 162.982 114.792 162.427 114.28C161.883 113.757 161.201 113.496 160.379 113.496ZM171.06 112.52C172.116 112.52 172.953 112.829 173.572 113.448C174.201 114.056 174.516 114.947 174.516 116.12V121H173.38V116.232C173.38 115.357 173.161 114.691 172.724 114.232C172.286 113.773 171.662 113.544 170.852 113.544C169.945 113.544 169.225 113.816 168.692 114.36C168.169 114.893 167.908 115.635 167.908 116.584V121H166.772V112.584H167.86V114.136C168.169 113.624 168.596 113.229 169.14 112.952C169.694 112.664 170.334 112.52 171.06 112.52Z" fill="black" fill-opacity="0.7"/>
<path d="M52.88 158.224C53.616 158.384 54.1813 158.704 54.576 159.184C54.9813 159.653 55.184 160.261 55.184 161.008C55.184 161.968 54.8267 162.709 54.112 163.232C53.408 163.744 52.3627 164 50.976 164H45.824V152.8H50.656C51.904 152.8 52.8693 153.051 53.552 153.552C54.2453 154.053 54.592 154.763 54.592 155.68C54.592 156.299 54.4373 156.827 54.128 157.264C53.8293 157.691 53.4133 158.011 52.88 158.224ZM47.008 153.776V157.84H50.576C51.4827 157.84 52.1813 157.669 52.672 157.328C53.1627 156.976 53.408 156.469 53.408 155.808C53.408 155.147 53.1627 154.645 52.672 154.304C52.1813 153.952 51.4827 153.776 50.576 153.776H47.008ZM50.96 163.024C51.9627 163.024 52.72 162.853 53.232 162.512C53.744 162.171 54 161.637 54 160.912C54 159.515 52.9867 158.816 50.96 158.816H47.008V163.024H50.96ZM65.2305 155.584V164H64.1425V162.464C63.8438 162.976 63.4332 163.376 62.9105 163.664C62.3878 163.941 61.7905 164.08 61.1185 164.08C60.0198 164.08 59.1505 163.776 58.5105 163.168C57.8812 162.549 57.5665 161.648 57.5665 160.464V155.584H58.7025V160.352C58.7025 161.237 58.9212 161.909 59.3585 162.368C59.7958 162.827 60.4198 163.056 61.2305 163.056C62.1158 163.056 62.8145 162.789 63.3265 162.256C63.8385 161.712 64.0945 160.96 64.0945 160V155.584H65.2305ZM69.5001 157.232C69.7668 156.667 70.1615 156.24 70.6841 155.952C71.2175 155.664 71.8735 155.52 72.6521 155.52V156.624L72.3801 156.608C71.4948 156.608 70.8015 156.88 70.3001 157.424C69.7988 157.968 69.5481 158.731 69.5481 159.712V164H68.4121V155.584H69.5001V157.232ZM82.4229 155.584V162.976C82.4229 164.405 82.0709 165.461 81.3669 166.144C80.6735 166.837 79.6229 167.184 78.2149 167.184C77.4362 167.184 76.6949 167.067 75.9909 166.832C75.2975 166.608 74.7322 166.293 74.2949 165.888L74.8709 165.024C75.2762 165.387 75.7669 165.669 76.3429 165.872C76.9295 166.075 77.5429 166.176 78.1829 166.176C79.2495 166.176 80.0335 165.925 80.5349 165.424C81.0362 164.933 81.2869 164.165 81.2869 163.12V162.048C80.9349 162.581 80.4709 162.987 79.8949 163.264C79.3295 163.541 78.7002 163.68 78.0069 163.68C77.2175 163.68 76.4975 163.509 75.8469 163.168C75.2069 162.816 74.7002 162.331 74.3269 161.712C73.9642 161.083 73.7829 160.373 73.7829 159.584C73.7829 158.795 73.9642 158.091 74.3269 157.472C74.7002 156.853 75.2069 156.373 75.8469 156.032C76.4869 155.691 77.2069 155.52 78.0069 155.52C78.7215 155.52 79.3669 155.664 79.9429 155.952C80.5189 156.24 80.9829 156.656 81.3349 157.2V155.584H82.4229ZM78.1189 162.672C78.7269 162.672 79.2762 162.544 79.7669 162.288C80.2575 162.021 80.6362 161.653 80.9029 161.184C81.1802 160.715 81.3189 160.181 81.3189 159.584C81.3189 158.987 81.1802 158.459 80.9029 158C80.6362 157.531 80.2575 157.168 79.7669 156.912C79.2869 156.645 78.7375 156.512 78.1189 156.512C77.5109 156.512 76.9615 156.64 76.4709 156.896C75.9909 157.152 75.6122 157.515 75.3349 157.984C75.0682 158.453 74.9349 158.987 74.9349 159.584C74.9349 160.181 75.0682 160.715 75.3349 161.184C75.6122 161.653 75.9909 162.021 76.4709 162.288C76.9615 162.544 77.5109 162.672 78.1189 162.672ZM93.1836 155.584V164H92.0956V162.464C91.797 162.976 91.3863 163.376 90.8636 163.664C90.341 163.941 89.7436 164.08 89.0716 164.08C87.973 164.08 87.1036 163.776 86.4636 163.168C85.8343 162.549 85.5196 161.648 85.5196 160.464V155.584H86.6556V160.352C86.6556 161.237 86.8743 161.909 87.3116 162.368C87.749 162.827 88.373 163.056 89.1836 163.056C90.069 163.056 90.7676 162.789 91.2796 162.256C91.7916 161.712 92.0476 160.96 92.0476 160V155.584H93.1836ZM100.653 155.52C101.709 155.52 102.547 155.829 103.165 156.448C103.795 157.056 104.109 157.947 104.109 159.12V164H102.973V159.232C102.973 158.357 102.755 157.691 102.317 157.232C101.88 156.773 101.256 156.544 100.445 156.544C99.5386 156.544 98.8186 156.816 98.2853 157.36C97.7626 157.893 97.5013 158.635 97.5013 159.584V164H96.3653V155.584H97.4533V157.136C97.7626 156.624 98.1893 156.229 98.7333 155.952C99.2879 155.664 99.9279 155.52 100.653 155.52ZM114.905 152.128V164H113.817V162.336C113.475 162.901 113.022 163.333 112.457 163.632C111.902 163.931 111.273 164.08 110.569 164.08C109.779 164.08 109.065 163.899 108.425 163.536C107.785 163.173 107.283 162.667 106.921 162.016C106.558 161.365 106.377 160.624 106.377 159.792C106.377 158.96 106.558 158.219 106.921 157.568C107.283 156.917 107.785 156.416 108.425 156.064C109.065 155.701 109.779 155.52 110.569 155.52C111.251 155.52 111.865 155.664 112.409 155.952C112.963 156.229 113.417 156.64 113.769 157.184V152.128H114.905ZM110.665 163.072C111.251 163.072 111.779 162.939 112.249 162.672C112.729 162.395 113.102 162.005 113.369 161.504C113.646 161.003 113.785 160.432 113.785 159.792C113.785 159.152 113.646 158.581 113.369 158.08C113.102 157.579 112.729 157.195 112.249 156.928C111.779 156.651 111.251 156.512 110.665 156.512C110.067 156.512 109.529 156.651 109.049 156.928C108.579 157.195 108.206 157.579 107.929 158.08C107.662 158.581 107.529 159.152 107.529 159.792C107.529 160.432 107.662 161.003 107.929 161.504C108.206 162.005 108.579 162.395 109.049 162.672C109.529 162.939 110.067 163.072 110.665 163.072ZM125.14 155.584L120.932 165.008C120.591 165.797 120.196 166.357 119.748 166.688C119.3 167.019 118.762 167.184 118.132 167.184C117.727 167.184 117.348 167.12 116.996 166.992C116.644 166.864 116.34 166.672 116.084 166.416L116.612 165.568C117.039 165.995 117.551 166.208 118.148 166.208C118.532 166.208 118.858 166.101 119.124 165.888C119.402 165.675 119.658 165.312 119.892 164.8L120.26 163.984L116.5 155.584H117.684L120.852 162.736L124.02 155.584H125.14Z" fill="black" fill-opacity="0.7"/>
<path d="M57.456 193.8V205H56.32V196.04L51.92 203.576H51.36L46.96 196.088V205H45.824V193.8H46.8L51.664 202.104L56.48 193.8H57.456ZM60.8653 196.584H62.0013V205H60.8653V196.584ZM61.4413 194.744C61.2066 194.744 61.0093 194.664 60.8493 194.504C60.6893 194.344 60.6093 194.152 60.6093 193.928C60.6093 193.715 60.6893 193.528 60.8493 193.368C61.0093 193.208 61.2066 193.128 61.4413 193.128C61.6759 193.128 61.8733 193.208 62.0333 193.368C62.1933 193.517 62.2733 193.699 62.2733 193.912C62.2733 194.147 62.1933 194.344 62.0333 194.504C61.8733 194.664 61.6759 194.744 61.4413 194.744ZM72.8421 193.128V205H71.7541V203.336C71.4128 203.901 70.9595 204.333 70.3941 204.632C69.8395 204.931 69.2101 205.08 68.5061 205.08C67.7168 205.08 67.0021 204.899 66.3621 204.536C65.7221 204.173 65.2208 203.667 64.8581 203.016C64.4955 202.365 64.3141 201.624 64.3141 200.792C64.3141 199.96 64.4955 199.219 64.8581 198.568C65.2208 197.917 65.7221 197.416 66.3621 197.064C67.0021 196.701 67.7168 196.52 68.5061 196.52C69.1888 196.52 69.8021 196.664 70.3461 196.952C70.9008 197.229 71.3541 197.64 71.7061 198.184V193.128H72.8421ZM68.6021 204.072C69.1888 204.072 69.7168 203.939 70.1861 203.672C70.6661 203.395 71.0395 203.005 71.3061 202.504C71.5835 202.003 71.7221 201.432 71.7221 200.792C71.7221 200.152 71.5835 199.581 71.3061 199.08C71.0395 198.579 70.6661 198.195 70.1861 197.928C69.7168 197.651 69.1888 197.512 68.6021 197.512C68.0048 197.512 67.4661 197.651 66.9861 197.928C66.5168 198.195 66.1435 198.579 65.8661 199.08C65.5995 199.581 65.4661 200.152 65.4661 200.792C65.4661 201.432 65.5995 202.003 65.8661 202.504C66.1435 203.005 66.5168 203.395 66.9861 203.672C67.4661 203.939 68.0048 204.072 68.6021 204.072ZM80.2939 196.52C81.3499 196.52 82.1872 196.829 82.8059 197.448C83.4352 198.056 83.7499 198.947 83.7499 200.12V205H82.6139V200.232C82.6139 199.357 82.3952 198.691 81.9579 198.232C81.5205 197.773 80.8965 197.544 80.0859 197.544C79.1792 197.544 78.4592 197.816 77.9259 198.36C77.4032 198.893 77.1419 199.635 77.1419 200.584V205H76.0059V196.584H77.0939V198.136C77.4032 197.624 77.8299 197.229 78.3739 196.952C78.9285 196.664 79.5685 196.52 80.2939 196.52ZM86.834 196.584H87.97V205H86.834V196.584ZM87.41 194.744C87.1753 194.744 86.978 194.664 86.818 194.504C86.658 194.344 86.578 194.152 86.578 193.928C86.578 193.715 86.658 193.528 86.818 193.368C86.978 193.208 87.1753 193.128 87.41 193.128C87.6447 193.128 87.842 193.208 88.002 193.368C88.162 193.517 88.242 193.699 88.242 193.912C88.242 194.147 88.162 194.344 88.002 194.504C87.842 194.664 87.6447 194.744 87.41 194.744ZM98.9229 196.584V203.976C98.9229 205.405 98.5709 206.461 97.8669 207.144C97.1735 207.837 96.1229 208.184 94.7149 208.184C93.9362 208.184 93.1949 208.067 92.4909 207.832C91.7975 207.608 91.2322 207.293 90.7949 206.888L91.3709 206.024C91.7762 206.387 92.2669 206.669 92.8429 206.872C93.4295 207.075 94.0429 207.176 94.6829 207.176C95.7495 207.176 96.5335 206.925 97.0349 206.424C97.5362 205.933 97.7869 205.165 97.7869 204.12V203.048C97.4349 203.581 96.9709 203.987 96.3949 204.264C95.8295 204.541 95.2002 204.68 94.5069 204.68C93.7175 204.68 92.9975 204.509 92.3469 204.168C91.7069 203.816 91.2002 203.331 90.8269 202.712C90.4642 202.083 90.2829 201.373 90.2829 200.584C90.2829 199.795 90.4642 199.091 90.8269 198.472C91.2002 197.853 91.7069 197.373 92.3469 197.032C92.9869 196.691 93.7069 196.52 94.5069 196.52C95.2215 196.52 95.8669 196.664 96.4429 196.952C97.0189 197.24 97.4829 197.656 97.8349 198.2V196.584H98.9229ZM94.6189 203.672C95.2269 203.672 95.7762 203.544 96.2669 203.288C96.7575 203.021 97.1362 202.653 97.4029 202.184C97.6802 201.715 97.8189 201.181 97.8189 200.584C97.8189 199.987 97.6802 199.459 97.4029 199C97.1362 198.531 96.7575 198.168 96.2669 197.912C95.7869 197.645 95.2375 197.512 94.6189 197.512C94.0109 197.512 93.4615 197.64 92.9709 197.896C92.4909 198.152 92.1122 198.515 91.8349 198.984C91.5682 199.453 91.4349 199.987 91.4349 200.584C91.4349 201.181 91.5682 201.715 91.8349 202.184C92.1122 202.653 92.4909 203.021 92.9709 203.288C93.4615 203.544 94.0109 203.672 94.6189 203.672ZM106.388 196.52C107.444 196.52 108.281 196.829 108.9 197.448C109.529 198.056 109.844 198.947 109.844 200.12V205H108.708V200.232C108.708 199.357 108.489 198.691 108.052 198.232C107.614 197.773 106.99 197.544 106.18 197.544C105.273 197.544 104.553 197.816 104.02 198.36C103.497 198.893 103.236 199.635 103.236 200.584V205H102.1V193.128H103.236V198.056C103.545 197.565 103.972 197.187 104.516 196.92C105.06 196.653 105.684 196.52 106.388 196.52ZM117.36 204.488C117.146 204.68 116.88 204.829 116.56 204.936C116.25 205.032 115.925 205.08 115.584 205.08C114.794 205.08 114.186 204.867 113.76 204.44C113.333 204.013 113.12 203.411 113.12 202.632V197.544H111.616V196.584H113.12V194.744H114.256V196.584H116.816V197.544H114.256V202.568C114.256 203.069 114.378 203.453 114.624 203.72C114.88 203.976 115.242 204.104 115.712 204.104C115.946 204.104 116.17 204.067 116.384 203.992C116.608 203.917 116.8 203.811 116.96 203.672L117.36 204.488ZM130.911 199.224C131.647 199.384 132.213 199.704 132.607 200.184C133.013 200.653 133.215 201.261 133.215 202.008C133.215 202.968 132.858 203.709 132.143 204.232C131.439 204.744 130.394 205 129.007 205H123.855V193.8H128.687C129.935 193.8 130.901 194.051 131.583 194.552C132.277 195.053 132.623 195.763 132.623 196.68C132.623 197.299 132.469 197.827 132.159 198.264C131.861 198.691 131.445 199.011 130.911 199.224ZM125.039 194.776V198.84H128.607C129.514 198.84 130.213 198.669 130.703 198.328C131.194 197.976 131.439 197.469 131.439 196.808C131.439 196.147 131.194 195.645 130.703 195.304C130.213 194.952 129.514 194.776 128.607 194.776H125.039ZM128.991 204.024C129.994 204.024 130.751 203.853 131.263 203.512C131.775 203.171 132.031 202.637 132.031 201.912C132.031 200.515 131.018 199.816 128.991 199.816H125.039V204.024H128.991ZM135.678 193.128H136.814V205H135.678V193.128ZM147.559 196.584V205H146.471V203.464C146.172 203.976 145.761 204.376 145.239 204.664C144.716 204.941 144.119 205.08 143.447 205.08C142.348 205.08 141.479 204.776 140.839 204.168C140.209 203.549 139.895 202.648 139.895 201.464V196.584H141.031V201.352C141.031 202.237 141.249 202.909 141.687 203.368C142.124 203.827 142.748 204.056 143.559 204.056C144.444 204.056 145.143 203.789 145.655 203.256C146.167 202.712 146.423 201.96 146.423 201V196.584H147.559ZM158.068 201.144H151.028C151.092 202.019 151.428 202.728 152.036 203.272C152.644 203.805 153.412 204.072 154.34 204.072C154.863 204.072 155.343 203.981 155.78 203.8C156.218 203.608 156.596 203.331 156.916 202.968L157.556 203.704C157.183 204.152 156.714 204.493 156.148 204.728C155.594 204.963 154.98 205.08 154.308 205.08C153.444 205.08 152.676 204.899 152.004 204.536C151.343 204.163 150.826 203.651 150.452 203C150.079 202.349 149.892 201.613 149.892 200.792C149.892 199.971 150.068 199.235 150.42 198.584C150.783 197.933 151.274 197.427 151.892 197.064C152.522 196.701 153.226 196.52 154.004 196.52C154.783 196.52 155.482 196.701 156.1 197.064C156.719 197.427 157.204 197.933 157.556 198.584C157.908 199.224 158.084 199.96 158.084 200.792L158.068 201.144ZM154.004 197.496C153.194 197.496 152.511 197.757 151.956 198.28C151.412 198.792 151.103 199.464 151.028 200.296H156.996C156.922 199.464 156.607 198.792 156.052 198.28C155.508 197.757 154.826 197.496 154.004 197.496Z" fill="black" fill-opacity="0.7"/>
<path d="M210.848 37L207.232 32.072L203.632 37H202.272L206.528 31.24L202.544 25.8H203.904L207.28 30.376L210.64 25.8H211.92L207.952 31.208L212.224 37H210.848ZM220.973 37L217.357 32.072L213.757 37H212.397L216.653 31.24L212.669 25.8H214.029L217.405 30.376L220.765 25.8H222.045L218.077 31.208L222.349 37H220.973ZM227.318 37.096C226.486 37.096 225.686 36.9627 224.918 36.696C224.161 36.4293 223.574 36.0773 223.158 35.64L223.622 34.728C224.028 35.1333 224.566 35.464 225.238 35.72C225.91 35.9653 226.604 36.088 227.318 36.088C228.321 36.088 229.073 35.9067 229.574 35.544C230.076 35.1707 230.326 34.6907 230.326 34.104C230.326 33.656 230.188 33.2987 229.91 33.032C229.644 32.7653 229.313 32.5627 228.918 32.424C228.524 32.2747 227.974 32.1147 227.27 31.944C226.428 31.7307 225.756 31.528 225.254 31.336C224.753 31.1333 224.321 30.8293 223.958 30.424C223.606 30.0187 223.43 29.4693 223.43 28.776C223.43 28.2107 223.58 27.6987 223.878 27.24C224.177 26.7707 224.636 26.3973 225.254 26.12C225.873 25.8427 226.641 25.704 227.558 25.704C228.198 25.704 228.822 25.7947 229.43 25.976C230.049 26.1467 230.582 26.3867 231.03 26.696L230.63 27.64C230.161 27.3307 229.66 27.1013 229.126 26.952C228.593 26.792 228.07 26.712 227.558 26.712C226.577 26.712 225.836 26.904 225.334 27.288C224.844 27.6613 224.598 28.1467 224.598 28.744C224.598 29.192 224.732 29.5547 224.998 29.832C225.276 30.0987 225.617 30.3067 226.022 30.456C226.438 30.5947 226.993 30.7493 227.686 30.92C228.508 31.1227 229.169 31.3253 229.67 31.528C230.182 31.72 230.614 32.0187 230.966 32.424C231.318 32.8187 231.494 33.3573 231.494 34.04C231.494 34.6053 231.34 35.1227 231.03 35.592C230.732 36.0507 230.268 36.4187 229.638 36.696C229.009 36.9627 228.236 37.096 227.318 37.096Z" fill="black"/>
<path d="M278.348 37L274.732 32.072L271.132 37H269.772L274.028 31.24L270.044 25.8H271.404L274.78 30.376L278.14 25.8H279.42L275.452 31.208L279.724 37H278.348ZM284.693 37.096C283.861 37.096 283.061 36.9627 282.293 36.696C281.536 36.4293 280.949 36.0773 280.533 35.64L280.997 34.728C281.403 35.1333 281.941 35.464 282.613 35.72C283.285 35.9653 283.979 36.088 284.693 36.088C285.696 36.088 286.448 35.9067 286.949 35.544C287.451 35.1707 287.701 34.6907 287.701 34.104C287.701 33.656 287.563 33.2987 287.285 33.032C287.019 32.7653 286.688 32.5627 286.293 32.424C285.899 32.2747 285.349 32.1147 284.645 31.944C283.803 31.7307 283.131 31.528 282.629 31.336C282.128 31.1333 281.696 30.8293 281.333 30.424C280.981 30.0187 280.805 29.4693 280.805 28.776C280.805 28.2107 280.955 27.6987 281.253 27.24C281.552 26.7707 282.011 26.3973 282.629 26.12C283.248 25.8427 284.016 25.704 284.933 25.704C285.573 25.704 286.197 25.7947 286.805 25.976C287.424 26.1467 287.957 26.3867 288.405 26.696L288.005 27.64C287.536 27.3307 287.035 27.1013 286.501 26.952C285.968 26.792 285.445 26.712 284.933 26.712C283.952 26.712 283.211 26.904 282.709 27.288C282.219 27.6613 281.973 28.1467 281.973 28.744C281.973 29.192 282.107 29.5547 282.373 29.832C282.651 30.0987 282.992 30.3067 283.397 30.456C283.813 30.5947 284.368 30.7493 285.061 30.92C285.883 31.1227 286.544 31.3253 287.045 31.528C287.557 31.72 287.989 32.0187 288.341 32.424C288.693 32.8187 288.869 33.3573 288.869 34.04C288.869 34.6053 288.715 35.1227 288.405 35.592C288.107 36.0507 287.643 36.4187 287.013 36.696C286.384 36.9627 285.611 37.096 284.693 37.096Z" fill="black"/>
<path d="M331.912 37.096C331.08 37.096 330.28 36.9627 329.512 36.696C328.755 36.4293 328.168 36.0773 327.752 35.64L328.216 34.728C328.621 35.1333 329.16 35.464 329.832 35.72C330.504 35.9653 331.197 36.088 331.912 36.088C332.915 36.088 333.667 35.9067 334.168 35.544C334.669 35.1707 334.92 34.6907 334.92 34.104C334.92 33.656 334.781 33.2987 334.504 33.032C334.237 32.7653 333.907 32.5627 333.512 32.424C333.117 32.2747 332.568 32.1147 331.864 31.944C331.021 31.7307 330.349 31.528 329.848 31.336C329.347 31.1333 328.915 30.8293 328.552 30.424C328.2 30.0187 328.024 29.4693 328.024 28.776C328.024 28.2107 328.173 27.6987 328.472 27.24C328.771 26.7707 329.229 26.3973 329.848 26.12C330.467 25.8427 331.235 25.704 332.152 25.704C332.792 25.704 333.416 25.7947 334.024 25.976C334.643 26.1467 335.176 26.3867 335.624 26.696L335.224 27.64C334.755 27.3307 334.253 27.1013 333.72 26.952C333.187 26.792 332.664 26.712 332.152 26.712C331.171 26.712 330.429 26.904 329.928 27.288C329.437 27.6613 329.192 28.1467 329.192 28.744C329.192 29.192 329.325 29.5547 329.592 29.832C329.869 30.0987 330.211 30.3067 330.616 30.456C331.032 30.5947 331.587 30.7493 332.28 30.92C333.101 31.1227 333.763 31.3253 334.264 31.528C334.776 31.72 335.208 32.0187 335.56 32.424C335.912 32.8187 336.088 33.3573 336.088 34.04C336.088 34.6053 335.933 35.1227 335.624 35.592C335.325 36.0507 334.861 36.4187 334.232 36.696C333.603 36.9627 332.829 37.096 331.912 37.096Z" fill="black"/>
<path d="M386.956 25.8V37H385.82V28.04L381.42 35.576H380.86L376.46 28.088V37H375.324V25.8H376.3L381.164 34.104L385.98 25.8H386.956Z" fill="black"/>
<path d="M427.824 25.8H429.008V35.976H435.28V37H427.824V25.8Z" fill="black"/>
<path d="M481.348 37L477.732 32.072L474.132 37H472.772L477.028 31.24L473.044 25.8H474.404L477.78 30.376L481.14 25.8H482.42L478.452 31.208L482.724 37H481.348ZM484.433 25.8H485.617V35.976H491.889V37H484.433V25.8Z" fill="black"/>
<path d="M537.48 35.976V37H529.624V36.184L534.28 31.624C534.867 31.048 535.261 30.552 535.464 30.136C535.677 29.7093 535.784 29.2827 535.784 28.856C535.784 28.1947 535.555 27.6827 535.096 27.32C534.648 26.9467 534.003 26.76 533.16 26.76C531.848 26.76 530.829 27.176 530.104 28.008L529.288 27.304C529.725 26.792 530.28 26.3973 530.952 26.12C531.635 25.8427 532.403 25.704 533.256 25.704C534.397 25.704 535.299 25.976 535.96 26.52C536.632 27.0533 536.968 27.7893 536.968 28.728C536.968 29.304 536.84 29.8587 536.584 30.392C536.328 30.9253 535.843 31.5387 535.128 32.232L531.32 35.976H537.48ZM546.942 37L543.326 32.072L539.726 37H538.366L542.622 31.24L538.638 25.8H539.998L543.374 30.376L546.734 25.8H548.014L544.046 31.208L548.318 37H546.942ZM550.027 25.8H551.211V35.976H557.483V37H550.027V25.8Z" fill="black"/>
<path d="M599.14 30.6C600.313 30.664 601.204 30.984 601.812 31.56C602.431 32.1253 602.74 32.8667 602.74 33.784C602.74 34.424 602.585 34.9947 602.276 35.496C601.967 35.9867 601.508 36.376 600.9 36.664C600.292 36.952 599.551 37.096 598.676 37.096C597.865 37.096 597.097 36.968 596.372 36.712C595.657 36.4453 595.081 36.0933 594.644 35.656L595.204 34.744C595.577 35.128 596.073 35.4427 596.692 35.688C597.311 35.9227 597.972 36.04 598.676 36.04C599.593 36.04 600.303 35.8427 600.804 35.448C601.305 35.0427 601.556 34.488 601.556 33.784C601.556 33.0907 601.305 32.5467 600.804 32.152C600.303 31.7573 599.545 31.56 598.532 31.56H597.732V30.712L600.836 26.824H595.108V25.8H602.308V26.616L599.14 30.6ZM612.223 37L608.607 32.072L605.007 37H603.647L607.903 31.24L603.919 25.8H605.279L608.655 30.376L612.015 25.8H613.295L609.327 31.208L613.599 37H612.223ZM615.308 25.8H616.492V35.976H622.764V37H615.308V25.8Z" fill="black"/>
<path d="M670.352 34.056H668.112V37H666.96V34.056H660.64V33.224L666.576 25.8H667.856L662.128 33.032H666.992V30.44H668.112V33.032H670.352V34.056ZM679.317 37L675.701 32.072L672.101 37H670.741L674.997 31.24L671.013 25.8H672.373L675.749 30.376L679.109 25.8H680.389L676.421 31.208L680.693 37H679.317ZM682.402 25.8H683.586V35.976H689.858V37H682.402V25.8Z" fill="black"/>
<path d="M220.972 79.296C221.708 79.296 222.359 79.4347 222.924 79.712C223.5 79.9893 223.948 80.384 224.268 80.896C224.588 81.3973 224.748 81.984 224.748 82.656C224.748 83.3387 224.583 83.9413 224.252 84.464C223.921 84.9867 223.463 85.392 222.876 85.68C222.3 85.9573 221.649 86.096 220.924 86.096C219.441 86.096 218.305 85.6107 217.516 84.64C216.727 83.6587 216.332 82.2773 216.332 80.496C216.332 79.248 216.545 78.192 216.972 77.328C217.399 76.464 217.996 75.8133 218.764 75.376C219.532 74.928 220.428 74.704 221.452 74.704C222.561 74.704 223.447 74.9067 224.108 75.312L223.644 76.24C223.111 75.888 222.385 75.712 221.468 75.712C220.231 75.712 219.26 76.1067 218.556 76.896C217.852 77.6747 217.5 78.8107 217.5 80.304C217.5 80.5707 217.516 80.8747 217.548 81.216C217.825 80.608 218.268 80.1387 218.876 79.808C219.484 79.4667 220.183 79.296 220.972 79.296ZM220.876 85.12C221.687 85.12 222.343 84.9013 222.844 84.464C223.356 84.016 223.612 83.424 223.612 82.688C223.612 81.952 223.356 81.3653 222.844 80.928C222.343 80.4907 221.66 80.272 220.796 80.272C220.231 80.272 219.729 80.3787 219.292 80.592C218.865 80.8053 218.529 81.0987 218.284 81.472C218.039 81.8453 217.916 82.2613 217.916 82.72C217.916 83.1467 218.028 83.5413 218.252 83.904C218.487 84.2667 218.828 84.56 219.276 84.784C219.724 85.008 220.257 85.12 220.876 85.12Z" fill="black"/>
<path d="M272.748 80.128C273.452 80.3627 273.991 80.7147 274.364 81.184C274.748 81.6533 274.94 82.2187 274.94 82.88C274.94 83.5307 274.764 84.1013 274.412 84.592C274.06 85.072 273.553 85.4453 272.892 85.712C272.241 85.968 271.473 86.096 270.588 86.096C269.244 86.096 268.188 85.808 267.42 85.232C266.652 84.656 266.268 83.872 266.268 82.88C266.268 82.208 266.449 81.6427 266.812 81.184C267.185 80.7147 267.724 80.3627 268.428 80.128C267.852 79.904 267.415 79.584 267.116 79.168C266.817 78.7413 266.668 78.24 266.668 77.664C266.668 76.7573 267.02 76.0373 267.724 75.504C268.439 74.9707 269.393 74.704 270.588 74.704C271.377 74.704 272.065 74.8267 272.652 75.072C273.249 75.3067 273.713 75.648 274.044 76.096C274.375 76.544 274.54 77.0667 274.54 77.664C274.54 78.24 274.385 78.7413 274.076 79.168C273.767 79.584 273.324 79.904 272.748 80.128ZM267.82 77.696C267.82 78.3147 268.065 78.8053 268.556 79.168C269.047 79.5307 269.724 79.712 270.588 79.712C271.452 79.712 272.129 79.5307 272.62 79.168C273.121 78.8053 273.372 78.32 273.372 77.712C273.372 77.0827 273.116 76.5867 272.604 76.224C272.103 75.8613 271.431 75.68 270.588 75.68C269.735 75.68 269.057 75.8613 268.556 76.224C268.065 76.5867 267.82 77.0773 267.82 77.696ZM270.588 85.12C271.58 85.12 272.353 84.9173 272.908 84.512C273.473 84.1067 273.756 83.5573 273.756 82.864C273.756 82.1707 273.473 81.6267 272.908 81.232C272.353 80.8267 271.58 80.624 270.588 80.624C269.607 80.624 268.833 80.8267 268.268 81.232C267.713 81.6267 267.436 82.1707 267.436 82.864C267.436 83.568 267.713 84.1227 268.268 84.528C268.823 84.9227 269.596 85.12 270.588 85.12Z" fill="black"/>
<path d="M320.436 74.8V86H319.284V75.824H316.644V74.8H320.436ZM327.577 86.096C326.713 86.096 325.94 85.8667 325.257 85.408C324.585 84.9493 324.057 84.2933 323.673 83.44C323.3 82.576 323.113 81.5627 323.113 80.4C323.113 79.2373 323.3 78.2293 323.673 77.376C324.057 76.512 324.585 75.8507 325.257 75.392C325.94 74.9333 326.713 74.704 327.577 74.704C328.441 74.704 329.209 74.9333 329.881 75.392C330.564 75.8507 331.097 76.512 331.481 77.376C331.865 78.2293 332.057 79.2373 332.057 80.4C332.057 81.5627 331.865 82.576 331.481 83.44C331.097 84.2933 330.564 84.9493 329.881 85.408C329.209 85.8667 328.441 86.096 327.577 86.096ZM327.577 85.04C328.228 85.04 328.799 84.8587 329.289 84.496C329.791 84.1333 330.18 83.6053 330.457 82.912C330.735 82.2187 330.873 81.3813 330.873 80.4C330.873 79.4187 330.735 78.5813 330.457 77.888C330.18 77.1947 329.791 76.6667 329.289 76.304C328.799 75.9413 328.228 75.76 327.577 75.76C326.927 75.76 326.351 75.9413 325.849 76.304C325.359 76.6667 324.975 77.1947 324.697 77.888C324.42 78.5813 324.281 79.4187 324.281 80.4C324.281 81.3813 324.42 82.2187 324.697 82.912C324.975 83.6053 325.359 84.1333 325.849 84.496C326.351 84.8587 326.927 85.04 327.577 85.04Z" fill="black"/>
<path d="M377.436 74.8V86H376.284V75.824H373.644V74.8H377.436ZM387.761 84.976V86H379.905V85.184L384.561 80.624C385.148 80.048 385.543 79.552 385.745 79.136C385.959 78.7093 386.065 78.2827 386.065 77.856C386.065 77.1947 385.836 76.6827 385.377 76.32C384.929 75.9467 384.284 75.76 383.441 75.76C382.129 75.76 381.111 76.176 380.385 77.008L379.569 76.304C380.007 75.792 380.561 75.3973 381.233 75.12C381.916 74.8427 382.684 74.704 383.537 74.704C384.679 74.704 385.58 74.976 386.241 75.52C386.913 76.0533 387.249 76.7893 387.249 77.728C387.249 78.304 387.121 78.8587 386.865 79.392C386.609 79.9253 386.124 80.5387 385.409 81.232L381.601 84.976H387.761Z" fill="black"/>
<path d="M432.436 74.8V86H431.284V75.824H428.644V74.8H432.436ZM444.633 83.056H442.393V86H441.241V83.056H434.921V82.224L440.857 74.8H442.137L436.409 82.032H441.273V79.44H442.393V82.032H444.633V83.056Z" fill="black"/>
<path d="M489.436 74.8V86H488.284V75.824H485.644V74.8H489.436ZM496.753 79.296C497.489 79.296 498.14 79.4347 498.705 79.712C499.281 79.9893 499.729 80.384 500.049 80.896C500.369 81.3973 500.529 81.984 500.529 82.656C500.529 83.3387 500.364 83.9413 500.033 84.464C499.703 84.9867 499.244 85.392 498.657 85.68C498.081 85.9573 497.431 86.096 496.705 86.096C495.223 86.096 494.087 85.6107 493.297 84.64C492.508 83.6587 492.113 82.2773 492.113 80.496C492.113 79.248 492.327 78.192 492.753 77.328C493.18 76.464 493.777 75.8133 494.545 75.376C495.313 74.928 496.209 74.704 497.233 74.704C498.343 74.704 499.228 74.9067 499.889 75.312L499.425 76.24C498.892 75.888 498.167 75.712 497.249 75.712C496.012 75.712 495.041 76.1067 494.337 76.896C493.633 77.6747 493.281 78.8107 493.281 80.304C493.281 80.5707 493.297 80.8747 493.329 81.216C493.607 80.608 494.049 80.1387 494.657 79.808C495.265 79.4667 495.964 79.296 496.753 79.296ZM496.657 85.12C497.468 85.12 498.124 84.9013 498.625 84.464C499.137 84.016 499.393 83.424 499.393 82.688C499.393 81.952 499.137 81.3653 498.625 80.928C498.124 80.4907 497.441 80.272 496.577 80.272C496.012 80.272 495.511 80.3787 495.073 80.592C494.647 80.8053 494.311 81.0987 494.065 81.472C493.82 81.8453 493.697 82.2613 493.697 82.72C493.697 83.1467 493.809 83.5413 494.033 83.904C494.268 84.2667 494.609 84.56 495.057 84.784C495.505 85.008 496.039 85.12 496.657 85.12Z" fill="black"/>
<path d="M545.436 74.8V86H544.284V75.824H541.644V74.8H545.436ZM554.529 80.128C555.233 80.3627 555.772 80.7147 556.145 81.184C556.529 81.6533 556.721 82.2187 556.721 82.88C556.721 83.5307 556.545 84.1013 556.193 84.592C555.841 85.072 555.335 85.4453 554.673 85.712C554.023 85.968 553.255 86.096 552.369 86.096C551.025 86.096 549.969 85.808 549.201 85.232C548.433 84.656 548.049 83.872 548.049 82.88C548.049 82.208 548.231 81.6427 548.593 81.184C548.967 80.7147 549.505 80.3627 550.209 80.128C549.633 79.904 549.196 79.584 548.897 79.168C548.599 78.7413 548.449 78.24 548.449 77.664C548.449 76.7573 548.801 76.0373 549.505 75.504C550.22 74.9707 551.175 74.704 552.369 74.704C553.159 74.704 553.847 74.8267 554.433 75.072C555.031 75.3067 555.495 75.648 555.825 76.096C556.156 76.544 556.321 77.0667 556.321 77.664C556.321 78.24 556.167 78.7413 555.857 79.168C555.548 79.584 555.105 79.904 554.529 80.128ZM549.601 77.696C549.601 78.3147 549.847 78.8053 550.337 79.168C550.828 79.5307 551.505 79.712 552.369 79.712C553.233 79.712 553.911 79.5307 554.401 79.168C554.903 78.8053 555.153 78.32 555.153 77.712C555.153 77.0827 554.897 76.5867 554.385 76.224C553.884 75.8613 553.212 75.68 552.369 75.68C551.516 75.68 550.839 75.8613 550.337 76.224C549.847 76.5867 549.601 77.0773 549.601 77.696ZM552.369 85.12C553.361 85.12 554.135 84.9173 554.689 84.512C555.255 84.1067 555.537 83.5573 555.537 82.864C555.537 82.1707 555.255 81.6267 554.689 81.232C554.135 80.8267 553.361 80.624 552.369 80.624C551.388 80.624 550.615 80.8267 550.049 81.232C549.495 81.6267 549.217 82.1707 549.217 82.864C549.217 83.568 549.495 84.1227 550.049 84.528C550.604 84.9227 551.377 85.12 552.369 85.12Z" fill="black"/>
<path d="M605.98 84.976V86H598.124V85.184L602.78 80.624C603.367 80.048 603.761 79.552 603.964 79.136C604.177 78.7093 604.284 78.2827 604.284 77.856C604.284 77.1947 604.055 76.6827 603.596 76.32C603.148 75.9467 602.503 75.76 601.66 75.76C600.348 75.76 599.329 76.176 598.604 77.008L597.788 76.304C598.225 75.792 598.78 75.3973 599.452 75.12C600.135 74.8427 600.903 74.704 601.756 74.704C602.897 74.704 603.799 74.976 604.46 75.52C605.132 76.0533 605.468 76.7893 605.468 77.728C605.468 78.304 605.34 78.8587 605.084 79.392C604.828 79.9253 604.343 80.5387 603.628 81.232L599.82 84.976H605.98ZM611.827 86.096C610.963 86.096 610.19 85.8667 609.507 85.408C608.835 84.9493 608.307 84.2933 607.923 83.44C607.55 82.576 607.363 81.5627 607.363 80.4C607.363 79.2373 607.55 78.2293 607.923 77.376C608.307 76.512 608.835 75.8507 609.507 75.392C610.19 74.9333 610.963 74.704 611.827 74.704C612.691 74.704 613.459 74.9333 614.131 75.392C614.814 75.8507 615.347 76.512 615.731 77.376C616.115 78.2293 616.307 79.2373 616.307 80.4C616.307 81.5627 616.115 82.576 615.731 83.44C615.347 84.2933 614.814 84.9493 614.131 85.408C613.459 85.8667 612.691 86.096 611.827 86.096ZM611.827 85.04C612.478 85.04 613.049 84.8587 613.539 84.496C614.041 84.1333 614.43 83.6053 614.707 82.912C614.985 82.2187 615.123 81.3813 615.123 80.4C615.123 79.4187 614.985 78.5813 614.707 77.888C614.43 77.1947 614.041 76.6667 613.539 76.304C613.049 75.9413 612.478 75.76 611.827 75.76C611.177 75.76 610.601 75.9413 610.099 76.304C609.609 76.6667 609.225 77.1947 608.947 77.888C608.67 78.5813 608.531 79.4187 608.531 80.4C608.531 81.3813 608.67 82.2187 608.947 82.912C609.225 83.6053 609.609 84.1333 610.099 84.496C610.601 84.8587 611.177 85.04 611.827 85.04Z" fill="black"/>
<path d="M665.98 84.976V86H658.124V85.184L662.78 80.624C663.367 80.048 663.761 79.552 663.964 79.136C664.177 78.7093 664.284 78.2827 664.284 77.856C664.284 77.1947 664.055 76.6827 663.596 76.32C663.148 75.9467 662.503 75.76 661.66 75.76C660.348 75.76 659.329 76.176 658.604 77.008L657.788 76.304C658.225 75.792 658.78 75.3973 659.452 75.12C660.135 74.8427 660.903 74.704 661.756 74.704C662.897 74.704 663.799 74.976 664.46 75.52C665.132 76.0533 665.468 76.7893 665.468 77.728C665.468 78.304 665.34 78.8587 665.084 79.392C664.828 79.9253 664.343 80.5387 663.628 81.232L659.82 84.976H665.98ZM675.074 84.976V86H667.218V85.184L671.874 80.624C672.46 80.048 672.855 79.552 673.058 79.136C673.271 78.7093 673.378 78.2827 673.378 77.856C673.378 77.1947 673.148 76.6827 672.69 76.32C672.242 75.9467 671.596 75.76 670.754 75.76C669.442 75.76 668.423 76.176 667.698 77.008L666.882 76.304C667.319 75.792 667.874 75.3973 668.546 75.12C669.228 74.8427 669.996 74.704 670.85 74.704C671.991 74.704 672.892 74.976 673.554 75.52C674.226 76.0533 674.562 76.7893 674.562 77.728C674.562 78.304 674.434 78.8587 674.178 79.392C673.922 79.9253 673.436 80.5387 672.722 81.232L668.914 84.976H675.074Z" fill="black"/>
<path d="M208.5 155L216.5 163L227.5 152" stroke="#CABC73" stroke-opacity="0.69" stroke-width="5"/>
<path d="M265.5 155L273.5 163L284.5 152" stroke="#CABC73" stroke-opacity="0.69" stroke-width="5"/>
<path d="M322.5 155L330.5 163L341.5 152" stroke="#CABC73" stroke-opacity="0.69" stroke-width="5"/>
<path d="M379.5 155L387.5 163L398.5 152" stroke="#85C958" stroke-width="5"/>
<path d="M436.5 155L444.5 163L455.5 152" stroke="#85C958" stroke-width="5"/>
<path d="M493.5 155L501.5 163L512.5 152" stroke="#CABC73" stroke-opacity="0.69" stroke-width="5"/>
<path d="M550.5 155L558.5 163L569.5 152" stroke="#85C958" stroke-width="5"/>
<path d="M607.5 155L615.5 163L626.5 152" stroke="#85C958" stroke-width="5"/>
<path d="M664.5 155L672.5 163L683.5 152" stroke="#CABC73" stroke-opacity="0.69" stroke-width="5"/>
<path d="M208.5 196L216.5 204L227.5 193" stroke="#85C958" stroke-width="5"/>
<path d="M265.5 196L273.5 204L284.5 193" stroke="#85C958" stroke-width="5"/>
<path d="M322.5 196L330.5 204L341.5 193" stroke="#CABC73" stroke-opacity="0.69" stroke-width="5"/>
<path d="M379.5 196L387.5 204L398.5 193" stroke="#CABC73" stroke-opacity="0.69" stroke-width="5"/>
<path d="M436.5 196L444.5 204L455.5 193" stroke="#CABC73" stroke-opacity="0.69" stroke-width="5"/>
<path d="M493.5 196L501.5 204L512.5 193" stroke="#CABC73" stroke-opacity="0.69" stroke-width="5"/>
<path d="M550.5 196L558.5 204L569.5 193" stroke="#85C958" stroke-width="5"/>
<path d="M607.5 196L615.5 204L626.5 193" stroke="#85C958" stroke-width="5"/>
<path d="M664.5 196L672.5 204L683.5 193" stroke="#85C958" stroke-width="5"/>
<path d="M208.5 112L216.5 120L227.5 109" stroke="#85C958" stroke-width="5"/>
<path d="M265.5 112L273.5 120L284.5 109" stroke="#CABC73" stroke-opacity="0.69" stroke-width="5"/>
<path d="M322.5 112L330.5 120L341.5 109" stroke="#85C958" stroke-width="5"/>
<path d="M379.5 112L387.5 120L398.5 109" stroke="#85C958" stroke-width="5"/>
<path d="M436.5 112L444.5 120L455.5 109" stroke="#85C958" stroke-width="5"/>
<path d="M493.5 112L501.5 120L512.5 109" stroke="#85C958" stroke-width="5"/>
<path d="M550.5 112L558.5 120L569.5 109" stroke="#85C958" stroke-width="5"/>
<path d="M607.5 112L615.5 120L626.5 109" stroke="#CABC73" stroke-opacity="0.69" stroke-width="5"/>
<path d="M664.5 112L672.5 120L683.5 109" stroke="#85C958" stroke-width="5"/>
</svg>
