<svg width="25" height="25" viewBox="0 0 25 25" fill="none" xmlns="http://www.w3.org/2000/svg">
<path d="M12.499 0C5.59588 0 0 5.59588 0 12.499C0 17.7876 3.28963 22.2986 7.92945 24.1249C7.90896 23.6976 7.91189 21.486 9.45134 14.8823C9.65718 12.6795 9.37134 11.8981 9.37134 10.983C9.37134 8.90599 10.4503 8.46796 11.0805 8.46796C11.979 8.46796 13.22 8.81136 13.22 10.2591C13.22 11.9176 11.8678 12.3537 11.8678 12.3537C11.8678 12.3537 11.7703 12.778 11.6581 13.9565C11.5459 15.137 12.0181 16.415 13.9438 16.415C17.0315 16.415 17.5076 12.1293 17.5076 10.9498C17.5076 9.32061 16.3135 6.01342 12.6063 6.01342C7.66214 6.01342 6.81144 10.4425 6.81144 11.6239C6.81144 12.1293 6.95095 13.021 7.04655 13.4024C7.98018 13.5536 7.88359 14.8316 7.48459 15.1945C7.0407 15.5935 4.75981 16.0686 4.75981 11.062C4.75981 6.29439 9.0094 3.8379 12.739 3.8379C16.2891 3.8379 20.1563 6.28756 20.1563 11.0064C20.1563 15.2189 17.1281 18.5359 13.9477 18.5359C12.0376 18.5359 11.0249 16.9623 11.0249 16.9623C11.0249 18.4354 8.31968 23.4976 7.97335 24.1405C9.37817 24.6878 10.901 24.999 12.5 24.999C19.4031 24.999 25 19.4031 25 12.499C25 5.5949 19.4022 0 12.499 0Z" fill="white"/>
</svg>
