<svg width="12" height="12" viewBox="0 0 12 12" fill="none" xmlns="http://www.w3.org/2000/svg">
<path d="M5.99953 0C2.68602 0 0 2.68613 0 5.99977C0 8.53838 1.57902 10.7038 3.80613 11.5804C3.7963 11.3753 3.79771 10.3137 4.53664 7.14381C4.63545 6.0864 4.49824 5.7113 4.49824 5.27204C4.49824 4.27504 5.01616 4.06478 5.31866 4.06478C5.74994 4.06478 6.34559 4.22962 6.34559 4.92457C6.34559 5.72066 5.69656 5.92999 5.69656 5.92999C5.69656 5.92999 5.64973 6.1337 5.59588 6.6994C5.54203 7.26603 5.76867 7.87949 6.69305 7.87949C8.17513 7.87949 8.40365 5.82228 8.40365 5.25612C8.40365 4.47407 7.83048 2.88656 6.05104 2.88656C3.67783 2.88656 3.26949 5.0126 3.26949 5.57971C3.26949 5.82228 3.33646 6.2503 3.38235 6.4334C3.83048 6.50599 3.78413 7.11945 3.5926 7.29366C3.37954 7.48519 2.28471 7.71325 2.28471 5.30997C2.28471 3.02142 4.32451 1.84226 6.11473 1.84226C7.81878 1.84226 9.67502 3.01815 9.67502 5.28328C9.67502 7.30537 8.22149 8.89756 6.69492 8.89756C5.77804 8.89756 5.29197 8.1422 5.29197 8.1422C5.29197 8.84933 3.99344 11.2793 3.82721 11.5879C4.50152 11.8506 5.2325 12 6 12C9.31351 12 12 9.31387 12 5.99977C12 2.68566 9.31304 0 5.99953 0Z" fill="white"/>
</svg>
