<svg width="31" height="31" viewBox="0 0 31 31" fill="none" xmlns="http://www.w3.org/2000/svg">
<path d="M28.8272 20.9196C29.0778 20.9196 29.281 20.7164 29.281 20.4657V1.9668C29.281 0.882289 28.3987 0 27.3142 0H3.6858C2.56011 0 1.71899 1.16619 1.71899 2.20887V29.0331C1.71899 30.1177 2.60134 30.9999 3.6858 30.9999H5.52697C5.77763 30.9999 5.98083 30.7967 5.98083 30.5461C5.98083 30.2954 5.77763 30.0922 5.52697 30.0922H3.6858C3.10182 30.0922 2.62671 29.6171 2.62671 29.0331V2.20887C2.62671 1.6232 3.11539 0.907719 3.6858 0.907719H22.2639V30.0922H7.60112C7.35046 30.0922 7.14726 30.2954 7.14726 30.546C7.14726 30.7967 7.35046 30.9999 7.60112 30.9999H27.3142C28.3987 30.9999 29.281 30.1176 29.281 29.0331V22.4855C29.281 22.2348 29.0778 22.0317 28.8272 22.0317C28.5765 22.0317 28.3733 22.2349 28.3733 22.4855V29.0331C28.3733 29.6171 27.8982 30.0922 27.3142 30.0922H23.1717V27.8536H25.7362C25.9868 27.8536 26.19 27.6504 26.19 27.3998C26.19 27.149 25.9868 26.9459 25.7362 26.9459H23.1717V23.9041H24.0001C24.2507 23.9041 24.4539 23.701 24.4539 23.4503C24.4539 23.1996 24.2507 22.9964 24.0001 22.9964H23.1717V19.9547H25.7362C25.9868 19.9547 26.19 19.7515 26.19 19.5008C26.19 19.2502 25.9868 19.047 25.7362 19.047H23.1717V16.0052H24.0001C24.2507 16.0052 24.4539 15.802 24.4539 15.5513C24.4539 15.3006 24.2507 15.0975 24.0001 15.0975H23.1717V12.0557H25.7362C25.9868 12.0557 26.19 11.8525 26.19 11.6019C26.19 11.3512 25.9868 11.148 25.7362 11.148H23.1717V8.10626H24.0001C24.2507 8.10626 24.4539 7.90306 24.4539 7.6524C24.4539 7.40167 24.2507 7.19854 24.0001 7.19854H23.1717V4.15672H26.19C26.4407 4.15672 26.6439 3.95353 26.6439 3.70287C26.6439 3.4522 26.4407 3.24901 26.19 3.24901H23.1717V0.907779H27.3142C27.8982 0.907779 28.3733 1.38289 28.3733 1.96687V20.4657C28.3733 20.7164 28.5765 20.9196 28.8272 20.9196Z" fill="black"/>
<path d="M10.9226 15.8058C10.042 16.5826 9.42395 17.6434 9.18243 18.7925L8.91087 20.0846C8.65858 21.2851 8.53064 22.5159 8.53064 23.7427C8.53064 24.2666 8.95695 24.6929 9.48098 24.6929H14.2257V25.2901C14.2257 25.5408 14.4289 25.744 14.6796 25.744C14.9303 25.744 15.1335 25.5408 15.1335 25.2901V24.6929H19.8782C20.4021 24.6929 20.8284 24.2682 20.8286 23.7461C20.8288 22.5183 20.7009 21.2863 20.4483 20.0845L20.1768 18.7925C19.9359 17.6466 19.3203 16.5881 18.4436 15.812C18.0849 15.4945 17.989 14.976 18.2105 14.5513L19.1498 12.7491C19.6039 11.8779 19.8439 10.8981 19.8439 9.91557V8.50786C19.8439 8.14597 19.6334 7.8103 19.3077 7.65245L16.4844 6.2856C16.4698 6.27858 16.4604 6.26357 16.4604 6.24734V5.75116C16.4604 5.34549 16.1304 5.01551 15.7248 5.01551H15.1336V4.56722C15.6517 4.38068 16.0233 3.88432 16.0233 3.3027C16.0233 2.56185 15.4206 1.95911 14.6797 1.95911C13.9389 1.95911 13.3361 2.56179 13.3361 3.3027C13.3361 3.88432 13.7077 4.38068 14.2259 4.56722V5.01551H13.6347C13.229 5.01551 12.899 5.34555 12.899 5.75116V6.24734C12.899 6.2635 12.8896 6.27852 12.875 6.2856L10.0516 7.65251C9.72596 7.8103 9.51549 8.14597 9.51549 8.50786V9.91557C9.51549 10.4766 9.59251 11.0349 9.7443 11.575C9.81217 11.8163 10.0627 11.957 10.3041 11.889C10.5454 11.8212 10.686 11.5706 10.6182 11.3292C10.4888 10.8692 10.4232 10.3935 10.4232 9.91557V8.50786C10.4232 8.49169 10.4327 8.47661 10.4472 8.46953L13.2704 7.10268C13.5962 6.94502 13.8067 6.60929 13.8067 6.24734V5.92329H15.5527V6.2474C15.5527 6.60935 15.7631 6.94508 16.0889 7.10275L18.9121 8.46953C18.927 8.47674 18.9362 8.49139 18.9362 8.50786V9.91557C18.9362 10.7526 18.7318 11.5873 18.3449 12.3295L17.4056 14.1317C16.9912 14.9269 17.1707 15.8974 17.8421 16.4917C18.5738 17.1394 19.0875 18.0229 19.2885 18.9793L19.5601 20.2713C19.7998 21.4117 19.9212 22.5808 19.921 23.7459C19.921 23.7672 19.9015 23.7852 19.8784 23.7852H9.48092C9.45749 23.7852 9.43836 23.7661 9.43836 23.7426C9.43836 22.5784 9.55975 21.4105 9.79922 20.2713L10.0708 18.9792C10.2723 18.0201 10.7881 17.1348 11.523 16.4864C12.1918 15.8965 12.3689 14.9281 11.9537 14.1316L11.3624 12.9972C11.2465 12.775 10.9724 12.6886 10.7502 12.8045C10.5278 12.9203 10.4416 13.1944 10.5574 13.4168L11.1487 14.5512C11.3705 14.9767 11.2775 15.4926 10.9226 15.8058ZM14.6796 2.86689C14.9199 2.86689 15.1154 3.06239 15.1154 3.3027C15.1154 3.54307 14.9199 3.73858 14.6796 3.73858C14.4393 3.73858 14.2438 3.54307 14.2438 3.3027C14.2438 3.06239 14.4393 2.86689 14.6796 2.86689Z" fill="black"/>
<path d="M4.96769 22.353C4.79047 22.1758 4.50305 22.1758 4.32583 22.353C4.14855 22.5303 4.14855 22.8176 4.32583 22.9949L5.44813 24.1172C5.53677 24.2058 5.6529 24.2501 5.76909 24.2501C5.88528 24.2501 6.00141 24.2058 6.09005 24.1172L7.21234 22.9949C7.38962 22.8176 7.38962 22.5303 7.21234 22.353C7.03512 22.1758 6.74771 22.1758 6.57049 22.353L6.22301 22.7005V4.35848L6.57049 4.70595C6.65913 4.79453 6.77526 4.83885 6.89144 4.83885C7.00763 4.83885 7.12376 4.79453 7.2124 4.70595C7.38968 4.52867 7.38968 4.24132 7.2124 4.06404L6.09011 2.94174C5.91289 2.76458 5.62547 2.76458 5.44825 2.94174L4.32577 4.06404C4.14849 4.24132 4.14849 4.52867 4.32577 4.70595C4.50299 4.88311 4.79041 4.88311 4.96763 4.70595L5.31511 4.35848V22.7005L4.96769 22.353Z" fill="black"/>
<path d="M18.747 28.601C18.8357 28.6895 18.9518 28.7339 19.068 28.7339C19.1842 28.7339 19.3003 28.6895 19.3889 28.601L20.5112 27.4787C20.6885 27.3014 20.6885 27.014 20.5112 26.8367L19.3889 25.7144C19.2117 25.5373 18.9243 25.5373 18.7471 25.7144C18.5698 25.8917 18.5698 26.1791 18.7471 26.3564L19.0946 26.7038H10.4009L10.7484 26.3564C10.9257 26.1791 10.9257 25.8917 10.7484 25.7144C10.5712 25.5373 10.2838 25.5373 10.1065 25.7144L8.98425 26.8367C8.80697 27.014 8.80697 27.3014 8.98425 27.4787L10.1065 28.601C10.1952 28.6895 10.3113 28.7339 10.4275 28.7339C10.5437 28.7339 10.6598 28.6895 10.7485 28.601C10.9257 28.4237 10.9257 28.1363 10.7485 27.959L10.401 27.6116H19.0945L18.747 27.959C18.5697 28.1363 18.5697 28.4237 18.747 28.601Z" fill="black"/>
</svg>
