<svg width="26" height="21" viewBox="0 0 26 21" fill="none" xmlns="http://www.w3.org/2000/svg">
<path d="M25.5 2.74844C24.5703 3.15625 23.5797 3.42656 22.5469 3.55781C23.6094 2.92344 24.4203 1.92656 24.8016 0.725C23.8109 1.31562 22.7172 1.73281 21.5516 1.96563C20.6109 0.964063 19.2703 0.34375 17.8078 0.34375C14.9703 0.34375 12.6859 2.64688 12.6859 5.47031C12.6859 5.87656 12.7203 6.26719 12.8047 6.63906C8.54375 6.43125 4.77344 4.38906 2.24062 1.27813C1.79844 2.04531 1.53906 2.92344 1.53906 3.86875C1.53906 5.64375 2.45312 7.21719 3.81562 8.12812C2.99219 8.1125 2.18437 7.87344 1.5 7.49688C1.5 7.5125 1.5 7.53281 1.5 7.55312C1.5 10.0437 3.27656 12.1125 5.60625 12.5891C5.18906 12.7031 4.73438 12.7578 4.2625 12.7578C3.93438 12.7578 3.60312 12.7391 3.29219 12.6703C3.95625 14.7 5.84063 16.1922 8.08125 16.2406C6.3375 17.6047 4.12344 18.4266 1.72656 18.4266C1.30625 18.4266 0.903125 18.4078 0.5 18.3563C2.77031 19.8203 5.46094 20.6562 8.3625 20.6562C17.7937 20.6562 22.95 12.8438 22.95 6.07187C22.95 5.84531 22.9422 5.62656 22.9312 5.40938C23.9484 4.6875 24.8031 3.78594 25.5 2.74844Z" fill="white"/>
</svg>
