<svg width="11" height="10" viewBox="0 0 11 10" fill="none" xmlns="http://www.w3.org/2000/svg">
<path d="M10.8 1.89938C10.4281 2.0625 10.0319 2.17062 9.61875 2.22312C10.0438 1.96938 10.3681 1.57062 10.5206 1.09C10.1244 1.32625 9.68688 1.49313 9.22063 1.58625C8.84438 1.18563 8.30813 0.9375 7.72313 0.9375C6.58813 0.9375 5.67438 1.85875 5.67438 2.98813C5.67438 3.15062 5.68813 3.30687 5.72188 3.45562C4.0175 3.3725 2.50938 2.55563 1.49625 1.31125C1.31938 1.61813 1.21563 1.96938 1.21563 2.3475C1.21563 3.0575 1.58125 3.68687 2.12625 4.05125C1.79688 4.045 1.47375 3.94938 1.2 3.79875C1.2 3.805 1.2 3.81312 1.2 3.82125C1.2 4.8175 1.91063 5.645 2.8425 5.83562C2.67563 5.88125 2.49375 5.90312 2.305 5.90312C2.17375 5.90312 2.04125 5.89563 1.91688 5.86812C2.1825 6.68 2.93625 7.27688 3.8325 7.29625C3.135 7.84188 2.24938 8.17062 1.29063 8.17062C1.1225 8.17062 0.961253 8.16313 0.800003 8.1425C1.70813 8.72813 2.78438 9.0625 3.945 9.0625C7.7175 9.0625 9.78 5.9375 9.78 3.22875C9.78 3.13812 9.77688 3.05063 9.7725 2.96375C10.1794 2.675 10.5213 2.31438 10.8 1.89938Z" fill="white"/>
</svg>
