<svg width="14" height="12" viewBox="0 0 14 12" fill="none" xmlns="http://www.w3.org/2000/svg">
<path d="M8.05661 1.1452V3.78342C8.05661 4.01126 8.07589 4.17858 8.11459 4.28566C8.17742 4.451 8.32015 4.53343 8.54254 4.53343C8.78424 4.53343 9.03336 4.39537 9.28964 4.11834V4.48662H9.94988V1.1452H9.28978V3.69639C9.14464 3.88864 9.00696 3.98437 8.87625 3.98437C8.78923 3.98437 8.7384 3.93544 8.72397 3.83709C8.71912 3.82825 8.71669 3.74994 8.71669 3.60278V1.1452H8.05661Z" fill="white"/>
<path d="M6.5477 4.53338C6.88139 4.53338 7.13767 4.41957 7.31665 4.19199C7.45207 4.02689 7.51979 3.76332 7.51979 3.40177V2.22993C7.51979 1.87286 7.45207 1.6118 7.31665 1.44657C7.13767 1.21872 6.88141 1.10492 6.5477 1.10492C6.22359 1.10492 5.96973 1.21872 5.7859 1.44657C5.65048 1.61193 5.58276 1.87299 5.58276 2.22993V3.40177C5.58276 3.7591 5.65048 4.02256 5.7859 4.19199C5.96959 4.41957 6.22357 4.53338 6.5477 4.53338ZM6.2357 2.1093C6.2357 1.8014 6.33971 1.64741 6.54768 1.64741C6.75553 1.64741 6.85966 1.80142 6.85966 2.1093V3.51557C6.85966 3.82822 6.75553 3.98434 6.54768 3.98434C6.33969 3.98434 6.2357 3.82822 6.2357 3.51557V2.1093Z" fill="white"/>
<path d="M4.69786 4.48661V2.67196L5.57564 0H4.83569L4.34245 1.76123L3.8272 0H3.05826C3.19368 0.37515 3.35081 0.792614 3.52979 1.25214C3.75706 1.86844 3.90448 2.34154 3.97233 2.67198V4.4865H4.69784V4.48661H4.69786Z" fill="white"/>
<path d="M11.4697 5.53788C11.2545 5.35948 11.0066 5.25464 10.7262 5.22314C9.83633 5.13401 8.49427 5.08917 6.70013 5.08917C4.90585 5.08917 3.56622 5.13388 2.68116 5.22314C2.39575 5.25453 2.14677 5.35948 1.93392 5.53788C1.72108 5.71681 1.58082 5.93754 1.51311 6.20098C1.38726 6.71891 1.32454 7.49991 1.32454 8.54475C1.32454 9.60725 1.3874 10.3884 1.51311 10.8885C1.57594 11.1517 1.71494 11.3727 1.93021 11.5514C2.14534 11.7301 2.39318 11.8326 2.67371 11.8595C3.56351 11.9532 4.90554 12 6.69999 12C8.49427 12 9.83633 11.9532 10.7261 11.8595C11.0065 11.8326 11.2532 11.7301 11.466 11.5514C11.6787 11.3727 11.819 11.1517 11.8869 10.8885C12.0126 10.3706 12.0754 9.58932 12.0754 8.54475C12.0754 7.48224 12.0126 6.70111 11.8869 6.20098C11.8239 5.93754 11.6849 5.71681 11.4697 5.53788ZM4.39314 6.87716H3.61692V10.6875H2.89153V6.87716H2.12989V6.2478H4.39331V6.87716H4.39314ZM6.35172 10.6875H5.70604V10.3256C5.4449 10.5979 5.19824 10.7343 4.96609 10.7343C4.74353 10.7343 4.6034 10.6516 4.54528 10.4865C4.50655 10.3793 4.48728 10.2166 4.48728 9.99758V7.37928H5.13295V9.81695C5.13295 9.95975 5.13538 10.0379 5.14024 10.0513C5.1548 10.1449 5.20552 10.1917 5.29265 10.1917C5.42322 10.1917 5.56107 10.0981 5.70621 9.91043V7.37928H6.35186V10.6875H6.35172ZM8.81825 9.69642C8.81825 10.0224 8.79652 10.2455 8.75296 10.366C8.67068 10.6114 8.49911 10.7343 8.23785 10.7343C8.00575 10.7343 7.78088 10.6114 7.56321 10.366V10.6875H6.91753V6.2478H7.56321V7.70086C7.77103 7.45994 7.99602 7.33931 8.23785 7.33931C8.49899 7.33931 8.67068 7.46432 8.75296 7.71418C8.79652 7.83035 8.81825 8.05132 8.81825 8.37728V9.69642ZM11.2702 9.14734H9.97173V9.7299C9.97173 10.038 10.0829 10.1918 10.3054 10.1918C10.465 10.1918 10.5617 10.1115 10.5955 9.95089C10.6051 9.90619 10.6101 9.77011 10.6101 9.54226H11.2702V9.62942C11.2702 9.8483 11.2654 9.97752 11.2556 10.0179C11.2411 10.1385 11.1903 10.2588 11.1034 10.3794C10.9292 10.6159 10.6681 10.7344 10.3199 10.7344C9.98618 10.7344 9.7249 10.6206 9.53635 10.3927C9.39607 10.2277 9.32593 9.96895 9.32593 9.6161V8.45758C9.32593 8.10501 9.39365 7.84604 9.52907 7.68068C9.71762 7.45309 9.9763 7.33929 10.3053 7.33929C10.6293 7.33929 10.8857 7.45307 11.0742 7.68068C11.2048 7.84604 11.2701 8.10499 11.2701 8.45758V9.14734H11.2702Z" fill="white"/>
<path d="M10.2981 7.88153C10.0805 7.88153 9.97176 8.03345 9.97176 8.33699V8.64516H10.6247V8.33699C10.6245 8.03356 10.5158 7.88153 10.2981 7.88153Z" fill="white"/>
<path d="M7.88974 7.88153C7.77845 7.88153 7.66961 7.93072 7.56334 8.02909V10.0445C7.66963 10.1429 7.77847 10.1918 7.88974 10.1918C8.07829 10.1918 8.17272 10.0424 8.17272 9.74323V8.3304C8.17256 8.03118 8.07829 7.88153 7.88974 7.88153Z" fill="white"/>
</svg>
