<svg width="22" height="25" viewBox="0 0 22 25" fill="none" xmlns="http://www.w3.org/2000/svg">
<path d="M13.6089 2.38586V7.88214C13.6089 8.35682 13.646 8.70541 13.7204 8.92849C13.8412 9.27295 14.1157 9.44468 14.5434 9.44468C15.0082 9.44468 15.4873 9.15705 15.9801 8.5799V9.34714H17.2498V2.38586H15.9804V7.70085C15.7013 8.10137 15.4365 8.3008 15.1851 8.3008C15.0178 8.3008 14.92 8.19886 14.8923 7.99396C14.883 7.97555 14.8783 7.81239 14.8783 7.50582V2.38586H13.6089Z" fill="white"/>
<path d="M10.7072 9.44462C11.3489 9.44462 11.8417 9.20753 12.1859 8.7334C12.4464 8.38943 12.5766 7.84034 12.5766 7.0871V4.64578C12.5766 3.90188 12.4464 3.358 12.1859 3.01376C11.8417 2.53909 11.3489 2.302 10.7072 2.302C10.0839 2.302 9.59572 2.53909 9.24219 3.01376C8.98176 3.35827 8.85155 3.90215 8.85155 4.64578V7.0871C8.85155 7.83154 8.98176 8.38041 9.24219 8.7334C9.59545 9.20753 10.0839 9.44462 10.7072 9.44462ZM10.1072 4.39446C10.1072 3.753 10.3072 3.43219 10.7071 3.43219C11.1069 3.43219 11.3071 3.75304 11.3071 4.39446V7.32419C11.3071 7.97554 11.1069 8.30078 10.7071 8.30078C10.3072 8.30078 10.1072 7.97554 10.1072 7.32419V4.39446Z" fill="white"/>
<path d="M7.14975 9.34709V5.56658L8.83779 0H7.41481L6.46627 3.66924L5.47541 0H3.99668C4.25711 0.781561 4.55928 1.65128 4.90347 2.60862C5.34053 3.89259 5.62403 4.8782 5.75451 5.56663V9.34686H7.14971V9.34709H7.14975Z" fill="white"/>
<path d="M20.1726 11.5373C19.7586 11.1657 19.282 10.9473 18.7428 10.8816C17.0314 10.6959 14.4506 10.6025 11.0003 10.6025C7.54976 10.6025 4.97355 10.6957 3.27151 10.8816C2.72264 10.947 2.24384 11.1657 1.83452 11.5373C1.4252 11.9101 1.15548 12.37 1.02526 12.9188C0.783238 13.9978 0.662628 15.6249 0.662628 17.8017C0.662628 20.0152 0.783507 21.6425 1.02526 22.6845C1.1461 23.2328 1.4134 23.6932 1.82738 24.0655C2.2411 24.4377 2.7177 24.6514 3.25719 24.7075C4.96835 24.9025 7.54917 25 11 25C14.4506 25 17.0314 24.9025 18.7426 24.7075C19.2818 24.6514 19.7562 24.4377 20.1655 24.0655C20.5745 23.6932 20.8443 23.2328 20.9748 22.6845C21.2166 21.6055 21.3374 19.9778 21.3374 17.8017C21.3374 15.5881 21.2166 13.9608 20.9748 12.9188C20.8536 12.37 20.5863 11.9101 20.1726 11.5373ZM6.56378 14.3275H5.07104V22.2657H3.67607V14.3275H2.21138V13.0163H6.5641V14.3275H6.56378ZM10.3303 22.2657H9.08859V21.5118C8.5864 22.0791 8.11205 22.3632 7.66561 22.3632C7.23762 22.3632 6.96812 22.1909 6.85635 21.847C6.78189 21.6236 6.74481 21.2847 6.74481 20.8284V15.3736H7.9865V20.4521C7.9865 20.7496 7.99117 20.9125 8.0005 20.9402C8.02851 21.1352 8.12605 21.2328 8.29361 21.2328C8.5447 21.2328 8.8098 21.0377 9.08891 20.6468V15.3736H10.3306V22.2657H10.3303ZM15.0736 20.201C15.0736 20.88 15.0318 21.3448 14.948 21.5959C14.7898 22.1072 14.4599 22.3632 13.9575 22.3632C13.5111 22.3632 13.0787 22.1072 12.6601 21.5959V22.2657H11.4184V13.0163H12.6601V16.0436C13.0597 15.5416 13.4924 15.2903 13.9575 15.2903C14.4596 15.2903 14.7898 15.5508 14.948 16.0713C15.0318 16.3133 15.0736 16.7737 15.0736 17.4528V20.201ZM19.7889 19.0571H17.2918V20.2707C17.2918 20.9127 17.5055 21.233 17.9335 21.233C18.2404 21.233 18.4263 21.0657 18.4915 20.7311C18.5099 20.638 18.5195 20.3545 18.5195 19.8798H19.7889V20.0614C19.7889 20.5174 19.7796 20.7866 19.7608 20.8706C19.7328 21.122 19.6353 21.3726 19.4681 21.6239C19.1332 22.1165 18.6311 22.3634 17.9613 22.3634C17.3196 22.3634 16.8172 22.1263 16.4546 21.6517C16.1848 21.3077 16.0499 20.7687 16.0499 20.0336V17.6201C16.0499 16.8855 16.1801 16.346 16.4406 16.0015C16.8032 15.5274 17.3006 15.2903 17.9333 15.2903C18.5563 15.2903 19.0494 15.5273 19.412 16.0015C19.6631 16.346 19.7886 16.8855 19.7886 17.6201V19.0571H19.7889Z" fill="white"/>
<path d="M17.9195 16.4199C17.5009 16.4199 17.2919 16.7364 17.2919 17.3688V18.0108H18.5475V17.3688C18.5472 16.7366 18.3382 16.4199 17.9195 16.4199Z" fill="white"/>
<path d="M13.288 16.4199C13.074 16.4199 12.8647 16.5224 12.6603 16.7273V20.9262C12.8647 21.1311 13.074 21.233 13.288 21.233C13.6506 21.233 13.8322 20.9218 13.8322 20.2985V17.3551C13.8319 16.7317 13.6506 16.4199 13.288 16.4199Z" fill="white"/>
</svg>
